<svg width="280" height="176" viewBox="0 0 280 176" fill="none" xmlns="http://www.w3.org/2000/svg">
<path d="M139.998 18.2408C139.998 14.5826 135.482 10.9243 130.966 10.9243H13.5482C9.03211 10.9243 4.51605 14.5826 4.51605 18.2408V87.7477H139.998V18.2408Z" fill="#212528"/>
<path d="M4.51605 87.7478V95.0643C4.51605 98.7226 9.03211 102.381 13.5482 102.381H130.966C135.482 102.381 139.998 98.7226 139.998 95.0643V87.7478H4.51605Z" fill="#DDDDDD"/>
<path d="M54.1926 106.039C54.1926 113.356 45.1605 113.356 36.1284 113.356H108.385C99.3532 113.356 90.3211 113.356 90.3211 106.039V102.381H54.1926V106.039Z" fill="#BFBEBE"/>
<path d="M13.5482 18.241H130.966V80.4313H13.5482V18.241Z" fill="#3E4347"/>
<path d="M72.2569 96.7105C73.5039 96.7105 74.5149 95.8916 74.5149 94.8814C74.5149 93.8712 73.5039 93.0522 72.2569 93.0522C71.0098 93.0522 69.9988 93.8712 69.9988 94.8814C69.9988 95.8916 71.0098 96.7105 72.2569 96.7105Z" fill="#94989B"/>
<path d="M36.1284 113.355H108.385V120.672H36.1284V113.355Z" fill="#94989B"/>
<path d="M208.656 115.198C215.559 118.649 228.371 121.88 235.176 120.904C252.819 118.36 265.547 108.35 273.262 94.4764C276.525 88.6051 276.805 76.7114 271.568 75.4189C264.931 73.7826 257.048 75.0614 244.81 80.7401C232.362 86.5151 229.365 95.6451 214.705 88.6189" fill="#694D42"/>
<path opacity="0.44" d="M211.96 103.249C214.523 104.926 214.887 105.834 217.001 108.034C221.16 112.379 230.99 112.613 232.894 112.64C244.222 112.791 249.697 110.096 257.006 105.353C264.315 100.609 271.19 90.2414 272.422 85.0989C273.276 81.5514 273.711 78.8564 273.543 76.6701C272.996 76.0651 272.352 75.6114 271.582 75.4189C264.945 73.7826 257.062 75.0614 244.824 80.7401C232.376 86.5151 229.379 95.6451 214.719 88.6189L211.526 102.603L211.96 103.249Z" fill="#B3937C"/>
<path d="M272.996 82.4862C273.248 81.18 273.43 80.0112 273.514 78.9525L265.995 75.7212L266.429 74.7587C263.839 74.7175 260.982 75.0887 257.762 75.9L261.375 77.4675L257.65 85.7587L249.207 82.1012L251.013 78.1C249.515 78.6775 243.844 81.0425 241.449 82.5L244.6 83.8612L240.875 92.1525L232.474 88.4125C230.892 89.3887 229.323 90.1862 227.629 90.6675L219.158 109.477C220.18 109.986 221.3 110.385 222.434 110.701L225.879 103.056L234.322 106.714C234.322 106.714 232.572 110.55 231.648 112.599C232.194 112.626 234.602 112.64 235.414 112.612L237.529 108.102L244.992 111.279C247.232 110.646 249.263 109.794 251.279 108.762L254.331 101.722L259.12 103.826C260.086 103.056 261.038 102.204 261.949 101.296L255.746 98.5875L259.47 90.2962L267.984 93.995C268.67 92.9912 269.286 92.0012 269.832 91.0387L260.884 87.1475L264.609 78.8562L272.996 82.4862ZM235.708 103.579L227.265 99.9212L230.99 91.63L239.433 95.2875L235.708 103.579ZM247.358 108.639L238.915 104.981L242.639 96.69L251.083 100.347L247.358 108.639ZM252.497 97.1987L244.054 93.5412L247.778 85.25L256.222 88.9075L252.497 97.1987Z" fill="#694D42"/>
<path d="M124.418 11.3163C122.976 11.0963 121.534 10.9313 120.077 10.8488C119.475 10.8076 118.817 10.7938 118.299 11.0963C117.865 11.3438 117.585 11.7838 117.361 12.2238C116.101 14.6163 115.947 17.5451 116.955 20.0476C117.207 20.6663 117.697 21.3538 118.355 21.2438C118.621 21.2026 118.831 21.0376 119.041 20.8726C121.114 19.2776 123.032 17.5038 124.754 15.5651C125.048 15.2351 125.328 14.6988 124.978 14.4101" fill="#825B4E"/>
<path d="M180.497 140.319C168.385 146.08 160.362 152.804 151.961 161.054C151.33 161.673 148.698 164.491 150.322 165.344C151.947 166.196 155.965 163.309 157.113 164.065C158.486 164.959 157.477 166.54 158.92 167.558C160.362 168.575 164.241 165.605 166.201 166.471C168.161 167.338 167.293 168.823 168.441 170.143C169.94 171.875 173.272 170.266 174.168 169.565C179.447 165.468 192.595 153.161 194.92 150.508C198 146.988 199.96 142.258 197.216 139.123" fill="#694D42"/>
<path d="M139.681 136.414C132.497 138.655 125.566 141.639 119.055 145.296C117.697 146.053 116.353 146.864 115.233 147.923C114.743 148.376 114.21 149.188 114.701 149.641C115.821 150.645 117.963 149.009 119.587 150.26C120.147 150.7 119.825 152.598 120.245 153.175C120.694 153.78 121.548 154 122.318 153.945C123.088 153.89 123.816 153.601 124.558 153.381C126.196 152.9 127.877 152.598 128.955 153.863C129.627 154.66 129.585 155.403 130.019 156.255C130.313 156.846 130.803 157.314 132.021 157.3C133.87 157.286 135.564 156.461 137.09 155.458C143.979 150.92 150.462 145.86 156.945 140.814" fill="#694D42"/>
<path d="M166.341 17.0225C171.186 18.3562 172.39 16.995 176.031 17.27C180.693 17.6137 180.133 21.945 179.447 24.3375C178.565 27.4037 176.829 29.8925 174.35 31.9412C173.93 32.285 173.454 32.6425 172.894 32.6837C172.236 32.7387 171.634 32.34 171.13 31.9275C167.825 29.2737 165.725 25.2175 165.487 21.0375" fill="#825B4E"/>
<path d="M117.137 56.54C117.137 56.54 108.554 57.5163 105.543 66.5638C101.132 79.7913 112.852 87.4638 112.852 87.4638C112.852 87.4638 109.632 114.565 126.448 129.415C143.265 144.265 148.754 144.815 168.413 148.349C188.073 151.883 206.402 139.439 211.134 134.434C215.867 129.429 223.232 118.993 224.549 106.013C225.865 93.0463 214.159 70.345 203.573 58.4925C192.987 46.64 171.242 28.27 171.242 28.27L144.917 49.2477L117.137 56.54Z" fill="#B38A6D"/>
<path d="M167.699 18.1913C159.872 7.41128 151.176 5.28003 141.613 5.28003C131.293 5.28003 121.506 12.7188 116.997 18.6038C113.356 23.375 108.82 31.13 108.175 40.0538C107.671 47.0663 109.94 53.625 116.997 58.4788C124.054 63.3325 152.101 69.1213 163.611 61.3525C173.692 54.5463 177.109 45.4025 176.101 37.73C175.386 32.2163 173.762 26.5375 167.699 18.1913Z" fill="#B38A6D"/>
<path d="M152.34 28.4601C154.129 27.8971 154.978 25.594 154.234 23.316C153.491 21.0381 151.438 19.6478 149.648 20.2108C147.859 20.7738 147.011 23.0769 147.754 25.3549C148.497 27.6329 150.55 29.0231 152.34 28.4601Z" fill="#212121"/>
<path d="M121.982 45.0314C121.254 50.0364 123.508 57.5714 125.398 57.4614C126.967 57.3651 127.331 54.3126 127.331 54.3126C127.331 54.3126 128.675 58.2176 131.139 57.9701C133.492 57.7226 133.38 49.4589 133.982 45.4164L126 42.2126L121.982 45.0314Z" fill="#FFECB3"/>
<path d="M116.689 21.8762C117.151 20.4737 118.453 18.6449 120.567 18.6999C122.822 18.7687 122.43 21.9449 121.66 23.6224C120.876 25.2999 119.069 26.9224 117.375 25.8774C116.213 25.1624 116.367 22.8662 116.689 21.8762Z" fill="#212121"/>
<path d="M158.262 92.6612C140.339 86.7212 139.583 69.19 134.066 65.065C132.189 63.6487 130.383 63.305 128.479 62.3287C126.729 61.435 124.712 60.5275 122.878 61.2425C124.138 62.0812 125.272 63.1262 126.182 64.3362C124.362 64.515 121.66 64.735 120.764 65.8625C120.609 66.055 120.82 66.3575 121.044 66.4675C121.268 66.5775 124.264 67.1137 125.454 68.2962C124.502 69.0937 123.41 69.7537 122.584 70.675C122.108 71.1975 122.542 71.5275 122.738 71.5825C124.026 71.9262 125.468 71.72 126.672 72.2975C127.877 72.875 128.759 73.9612 129.823 74.7312C131.111 75.68 132.721 76.2025 134.346 76.2025C137.034 81.7162 140.535 86.3087 145.086 90.4612C149.286 94.2975 154.467 97.0337 160.222 98.065C178.327 101.31 186.364 83.215 186.364 83.215C186.364 83.215 173.496 97.7075 158.262 92.6612Z" fill="#825B4E"/>
<path d="M130.635 25.3687C129.935 24.4612 128.605 24.3375 127.751 25.0937C125.608 27.005 123.536 28.765 122.64 30.1675C122.052 31.1162 121.534 33.0275 122.668 34.3887C123.802 35.75 127.373 38.5962 127.373 38.5962C127.373 38.5962 131.895 36.52 133.296 35.5437C134.99 34.3475 135.368 31.8037 133.926 29.7C133.352 28.8612 131.755 26.8262 130.635 25.3687Z" fill="#212121"/>
<path d="M139.975 44.5363C141.151 42.7351 139.835 41.8826 139.065 42.7626C138.196 43.7388 135.9 45.2926 132.749 44.2063C130.999 43.6013 129.823 43.0513 129.151 41.0851C128.675 39.6826 128.843 37.7988 128.857 36.3413C128.857 35.6813 125.86 35.6126 125.664 36.1626C125.258 37.2901 125.286 38.4588 125.244 39.6413C125.202 40.9476 125.02 42.5013 123.886 43.1888C120.189 45.4851 118.005 42.0476 117.571 41.6488C117.389 41.4838 116.969 42.5426 117.333 43.6838C119.069 49.1976 125.272 48.1938 127.051 45.5538C127.373 47.7538 135.284 51.7276 139.975 44.5363Z" fill="#212121"/>
<path d="M111.186 86.1438C111.424 86.35 111.732 86.6663 111.956 86.845C112.544 87.3263 113.412 87.285 113.958 86.7488C114.588 86.1025 115.345 84.9613 115.821 83.435C116.745 80.5338 116.409 76.4775 114.616 73.5625L112.936 75.24C114.224 79.255 113.72 82.6787 112.418 84.8237C111.9 85.6625 111.214 86.075 111.186 86.1438Z" fill="#825B4E"/>
<path d="M154.845 59.0426L153.823 63.6763C158.206 63.1538 162.854 54.8213 162.854 54.8213L162.91 60.3901C168.511 57.4063 171.41 44.5913 171.41 44.5913C171.914 50.8063 172.474 64.6388 153.543 67.0451C146.682 67.9251 139.499 65.1476 139.499 65.1476C139.499 65.1476 150.168 64.4601 154.845 59.0426Z" fill="#825B4E"/>
<path d="M109.814 64.6389C112.194 60.9814 116.395 59.8401 119.811 60.3626C119.965 60.3901 120.385 60.5414 120.497 60.6376C120.722 60.8439 120.624 61.2426 120.371 61.4351C120.133 61.6276 119.797 61.6689 119.503 61.7514C117.795 62.1639 116.255 63.4426 115.961 65.1476C117.179 64.6526 118.635 64.7626 119.769 65.4089C120.077 65.5876 120.413 65.9451 120.231 66.2614C120.133 66.4401 119.895 66.5089 119.685 66.5776C118.201 67.0451 117.193 68.5714 116.955 70.0839C117.753 69.9189 118.579 69.7401 119.391 69.8776C120.203 70.0151 121.282 70.6889 121.198 71.3076C121.1 71.9676 119.279 71.5276 118.453 72.9439C117.879 73.9339 117.571 75.1301 116.675 75.8451C115.849 76.5051 114.659 76.6426 113.636 76.3401C112.614 76.0514 111.732 75.3776 111.032 74.5939C108.638 71.9126 108.119 67.7739 109.814 64.6389Z" fill="#825B4E"/>
</svg>
