<svg width="150" height="112" viewBox="0 0 150 112" fill="none" xmlns="http://www.w3.org/2000/svg">
<path d="M141.493 72.8508C139.776 75.712 128.712 81.0542 123.561 81.8171C118.41 82.58 126.232 73.6138 136.532 70.3707" fill="#9F9294"/>
<path d="M123.009 82.8703C121.466 82.8703 121.072 81.9516 120.971 81.5148C120.316 78.6673 127.883 72.0359 136.23 69.408C136.76 69.2425 137.328 69.5356 137.495 70.0676C137.662 70.5997 137.368 71.1664 136.836 71.3335C129.062 73.7814 123.515 79.1953 122.984 80.8536C123.088 80.8544 123.226 80.8463 123.413 80.8181C128.511 80.0632 139.13 74.8285 140.628 72.3314C140.915 71.8534 141.535 71.6984 142.012 71.9858C142.49 72.2725 142.645 72.8925 142.358 73.3704C140.417 76.607 129.123 82.0129 123.708 82.8154C123.453 82.8534 123.221 82.8703 123.009 82.8703Z" fill="#332D2B"/>
<path d="M122.057 79.9977C129.458 70.4446 137.898 67.0885 144.241 68.1114C153.511 69.6074 148.361 80.2908 136.108 74.436" fill="#9F9294"/>
<path d="M122.056 81.0069C121.84 81.0069 121.623 80.9383 121.438 80.7954C120.998 80.4539 120.918 79.8201 121.259 79.3793C128.158 70.4744 136.81 65.8896 144.401 67.1159C147.326 67.5874 149.315 68.9922 149.859 70.9685C150.3 72.5735 149.694 74.2592 148.239 75.4767C146.079 77.2835 141.643 78.1982 135.674 75.3467C135.171 75.1061 134.958 74.5038 135.198 74.0009C135.439 73.4987 136.041 73.2864 136.544 73.5253C141.65 75.9659 145.263 75.3338 146.944 73.929C147.776 73.2323 148.139 72.3256 147.912 71.5038C147.593 70.3396 146.159 69.4443 144.079 69.1084C137.228 68.0048 129.294 72.3047 122.854 80.6161C122.656 80.8721 122.358 81.0069 122.056 81.0069Z" fill="#332D2B"/>
<path d="M102.889 96.841C101.043 104.471 111.518 102.285 109.62 107.222C108.17 110.996 96.1549 111.898 95.9764 102.473" fill="#F7BDA1"/>
<path d="M103.84 110.92C103.206 110.92 102.558 110.866 101.912 110.753C97.6473 110.003 95.0509 106.915 94.9677 102.492C94.9564 101.935 95.4005 101.475 95.9567 101.464C96.5089 101.45 96.9748 101.896 96.9853 102.454C97.0741 107.153 100.329 108.426 102.262 108.765C105.26 109.29 108.173 108.173 108.678 106.86C109.126 105.695 108.814 105.328 106.455 104.24C104.165 103.182 100.703 101.584 101.908 96.604C102.039 96.0631 102.583 95.7288 103.126 95.8604C103.668 95.9912 104 96.537 103.869 97.0787C103.055 100.447 105.023 101.355 107.301 102.407C109.183 103.276 111.76 104.466 110.562 107.584C109.789 109.598 106.974 110.92 103.84 110.92Z" fill="#332D2B"/>
<path d="M106.138 105.907C106.104 105.907 106.069 105.903 106.035 105.893C105.371 105.717 101.995 104.662 100.752 101.186C100.677 100.977 100.786 100.745 100.996 100.671C101.207 100.595 101.438 100.704 101.513 100.914C102.643 104.075 105.877 105.016 106.242 105.113C106.458 105.17 106.586 105.392 106.528 105.607C106.48 105.788 106.317 105.907 106.138 105.907Z" fill="#332D2B"/>
<path d="M93.2734 98.9125C93.0934 103.619 84.0294 103.55 83.2996 107.57C82.4067 112.481 94.528 111.189 100.685 105.405" fill="#F7BDA1"/>
<path d="M87.7103 111.612C86.2151 111.612 84.9226 111.365 83.9909 110.857C82.6515 110.13 82.038 108.866 82.306 107.39C82.746 104.97 85.2536 103.846 87.678 102.758C90.406 101.535 92.1991 100.604 92.2653 98.8742C92.2863 98.3172 92.7505 97.8893 93.3116 97.9038C93.8694 97.9256 94.303 98.3939 94.282 98.9509C94.1633 102.062 91.1568 103.411 88.5039 104.6C86.4662 105.513 84.5415 106.377 84.292 107.752C84.1774 108.381 84.3695 108.767 84.9549 109.085C87.4802 110.459 95.388 108.996 99.9939 104.67C100.399 104.288 101.039 104.308 101.42 104.714C101.801 105.121 101.782 105.759 101.375 106.141C97.5888 109.697 91.8713 111.612 87.7103 111.612Z" fill="#332D2B"/>
<path d="M88.7463 107.02C88.5388 107.02 88.3628 106.862 88.3442 106.652C88.3256 106.431 88.4895 106.235 88.7107 106.214C91.9627 105.928 95.0741 103.286 96.9019 100.909C97.0384 100.733 97.2911 100.699 97.4679 100.835C97.6447 100.971 97.6778 101.224 97.5422 101.401C96.604 102.62 93.2019 106.629 88.7818 107.019C88.7697 107.02 88.7584 107.02 88.7463 107.02Z" fill="#332D2B"/>
<path d="M96.8291 90.7316C91.864 92.9396 84.4737 93.445 83.0173 89.309C81.56 85.1739 86.4307 82.1367 86.4307 82.1367C86.4307 82.1367 80.3329 78.2801 82.0218 73.5023C83.7108 68.7245 87.7167 69.6093 87.7167 69.6093C87.7167 69.6093 84.6634 62.2723 91.3231 60.1974C97.8375 58.1678 101.655 67.9849 101.655 67.9849C104.009 74.7738 111.41 84.2487 96.8291 90.7316Z" fill="#F7BDA1"/>
<path d="M86.9622 70.5545C85.6721 70.5545 83.9331 71.1237 82.974 73.8379C81.5749 77.7939 86.917 81.25 86.9719 81.2848L88.3234 82.1438L86.9647 82.9931C86.9251 83.0181 82.8012 85.6605 83.9686 88.9738C84.7138 91.0874 87.5653 91.4031 89.1994 91.4031C91.4768 91.4031 94.1766 90.8073 96.4193 89.8094C107.783 84.7571 104.901 78.1604 102.115 71.7816C101.585 70.569 101.085 69.4242 100.701 68.315C100.685 68.277 97.7611 60.9303 93.0818 60.9303C92.6055 60.9303 92.1146 61.0078 91.623 61.1612C90.0721 61.644 89.0484 62.4505 88.4954 63.626C87.3627 66.0367 88.6358 69.1925 88.6496 69.224L89.3834 71.0106L87.4983 70.5957H87.4991C87.4983 70.5957 87.2876 70.5545 86.9622 70.5545ZM89.1994 93.4214C85.4566 93.4214 82.9231 92.0804 82.0658 89.6447C80.8443 86.1804 83.2138 83.4654 84.7461 82.147C82.8973 80.6421 79.6203 77.2683 81.0703 73.1654C82.3443 69.5623 84.8519 68.7307 86.3382 68.5701C85.9878 67.129 85.7044 64.8313 86.6635 62.7799C87.4579 61.0804 88.9249 59.888 91.0231 59.2341C91.7085 59.0201 92.4012 58.9119 93.0818 58.9119C99.1409 58.9119 102.457 67.2638 102.595 67.6182C102.966 68.6879 103.451 69.798 103.965 70.9735C106.695 77.2255 110.435 85.7865 97.2388 91.6533C94.7143 92.7772 91.7828 93.4214 89.1994 93.4214Z" fill="#332D2B"/>
<path d="M100.808 72.5303C100.719 72.5303 100.627 72.5004 100.553 72.4391L92.2819 65.6413C92.1099 65.5 92.0849 65.2457 92.2262 65.0738C92.3683 64.9002 92.6218 64.876 92.7946 65.0181L101.065 71.815C101.237 71.9571 101.262 72.2106 101.121 72.3834C101.041 72.4802 100.925 72.5303 100.808 72.5303Z" fill="#332D2B"/>
<path d="M100.238 78.7264C100.211 78.7264 100.183 78.724 100.154 78.7184L88.1508 76.1987C87.9329 76.1526 87.7932 75.9387 87.8392 75.7207C87.8844 75.5019 88.0984 75.3615 88.3163 75.4083L100.321 77.928C100.539 77.974 100.678 78.1879 100.632 78.4059C100.593 78.5964 100.425 78.7264 100.238 78.7264Z" fill="#332D2B"/>
<path d="M87.5984 86.9263C87.3909 86.9263 87.2149 86.7681 87.1964 86.5582C87.177 86.337 87.3409 86.14 87.5629 86.1198L99.2935 85.0743C99.5163 85.0549 99.7125 85.218 99.7318 85.44C99.752 85.6628 99.5881 85.859 99.3653 85.8784L87.6348 86.9247C87.6218 86.9263 87.6105 86.9263 87.5984 86.9263Z" fill="#332D2B"/>
<path d="M90.3145 68.0426C90.1837 68.5819 90.5898 69.1438 91.222 69.2972C91.8541 69.4506 92.4733 69.1382 92.6041 68.5989C92.7349 68.0596 92.3288 67.4985 91.6967 67.3443C91.0645 67.1909 90.4461 67.5033 90.3145 68.0426Z" fill="#FBE3EE"/>
<path d="M90.1504 72.9273C90.0721 73.247 90.3127 73.5788 90.6873 73.6692C91.0611 73.7605 91.4276 73.5756 91.5051 73.2567C91.5818 72.9378 91.342 72.6052 90.9682 72.5139C90.5936 72.4235 90.2279 72.6084 90.1504 72.9273Z" fill="#FBE3EE"/>
<path d="M85.5784 74.37C85.5009 74.6897 85.7415 75.0215 86.1153 75.1128C86.4891 75.2032 86.8556 75.0183 86.9331 74.6994C87.0106 74.3805 86.7709 74.0479 86.3962 73.9575C86.0225 73.8662 85.6559 74.0511 85.5784 74.37Z" fill="#FBE3EE"/>
<path d="M88.0957 78.8474C88.0182 79.1671 88.258 79.4989 88.6326 79.5901C89.0064 79.6806 89.3729 79.4957 89.4504 79.1768C89.5279 78.8579 89.2882 78.5253 88.9136 78.4349C88.5398 78.3436 88.1732 78.5285 88.0957 78.8474Z" fill="#FBE3EE"/>
<path d="M87.689 88.1168C87.6115 88.4357 87.852 88.7684 88.2258 88.8588C88.6004 88.95 88.9662 88.7651 89.0445 88.4462C89.1212 88.1265 88.8814 87.7947 88.5068 87.7035C88.133 87.6122 87.7673 87.7971 87.689 88.1168Z" fill="#FBE3EE"/>
<path d="M115.326 88.535C101.602 92.3699 108.06 104.076 97.43 102.952C88.5494 102.013 91.0561 82.208 92.2768 78.0397C93.9319 72.3884 102.813 69.0242 110.616 75.4829C118.421 81.9415 119.444 87.3846 115.326 88.535Z" fill="#9F9294"/>
<path d="M101.578 72.9702C97.5942 72.9702 94.1679 75.1718 93.2451 78.3236C92.2586 81.6926 90.6625 94.5534 94.1736 99.7938C95.0471 101.097 96.1467 101.802 97.5353 101.949C97.9753 101.995 98.3935 102.019 98.777 102.019C102.186 102.019 102.946 100.278 104.207 97.3944C105.715 93.9439 107.593 89.6481 115.054 87.5627C115.967 87.3076 116.487 86.8265 116.642 86.091C117.002 84.3996 115.471 80.811 109.972 76.2601C107.372 74.1077 104.469 72.9702 101.578 72.9702ZM98.777 104.037C98.3233 104.037 97.8332 104.011 97.323 103.956C95.3313 103.746 93.7069 102.724 92.4967 100.918C88.3374 94.7085 90.3856 80.9079 91.3075 77.7569C92.4806 73.7501 96.7046 70.9519 101.578 70.9519C104.945 70.9519 108.292 72.2501 111.259 74.706C116.592 79.1188 119.274 83.4211 118.617 86.51C118.304 87.9866 117.231 89.0499 115.597 89.5068C109.059 91.3338 107.464 94.9838 106.057 98.2026C104.802 101.072 103.506 104.037 98.777 104.037Z" fill="#332D2B"/>
<path d="M92.0607 78.9641C93.4331 71.8338 97.184 65.2201 105.286 62.0828C111.085 59.8384 121.001 59.928 125.567 66.2357C130.133 72.5442 128.85 83.9252 120.106 88.1766C112.653 91.8007 107.075 89.4377 107.075 89.4377C105.282 88.8435 100.482 86.6071 99.0498 83.3213" fill="#9F9294"/>
<path d="M111.764 91.2093C108.892 91.2093 107.024 90.5061 106.717 90.3818C106.164 90.1897 99.9648 87.9485 98.1249 83.7245C97.9029 83.2135 98.1362 82.6177 98.6473 82.3957C99.1583 82.1729 99.7533 82.407 99.9753 82.918C101.265 85.8777 105.878 87.9776 107.392 88.4797C107.417 88.4878 107.442 88.4983 107.468 88.508C107.516 88.5282 112.756 90.6281 119.665 87.2695C123.197 85.5515 125.691 82.4199 126.686 78.4519C127.715 74.353 126.973 69.899 124.75 66.8279C120.431 60.8609 110.8 61.032 105.651 63.0237C98.8435 65.6597 94.605 71.0866 93.0516 79.155C92.9459 79.7024 92.4163 80.0576 91.8697 79.9559C91.3231 79.8502 90.9647 79.3205 91.0696 78.7732C92.74 70.1008 97.5291 64.0046 104.922 61.1426C110.827 58.8563 121.389 58.7416 126.385 65.6443C128.948 69.1853 129.814 74.2812 128.644 78.9435C127.501 83.5001 124.626 87.1016 120.547 89.0836C117.149 90.737 114.118 91.2093 111.764 91.2093Z" fill="#332D2B"/>
<path d="M118.888 61.4598C118.109 63.3054 118.973 65.4319 120.819 66.211C122.664 66.9901 124.791 66.1262 125.57 64.2806C126.349 62.4351 125.485 60.3078 123.639 59.5287C121.795 58.7504 119.667 59.6143 118.888 61.4598Z" fill="#F5F2E9"/>
<path d="M122.231 60.0498C121.094 60.0498 120.074 60.7263 119.631 61.7734C119.339 62.4677 119.333 63.2339 119.618 63.9314C119.9 64.629 120.439 65.1747 121.133 65.4678C121.483 65.6155 121.851 65.6906 122.228 65.6906C123.364 65.6906 124.384 65.0141 124.827 63.967C125.119 63.2727 125.124 62.5057 124.84 61.809C124.558 61.1114 124.019 60.5657 123.326 60.2726C122.975 60.1249 122.607 60.0498 122.231 60.0498ZM122.228 67.3053C121.634 67.3053 121.055 67.1874 120.505 66.9557C119.414 66.4947 118.567 65.6365 118.121 64.5394C117.675 63.4422 117.683 62.236 118.144 61.1461C118.839 59.4984 120.444 58.4351 122.231 58.4351C122.824 58.4351 123.403 58.553 123.954 58.7847C125.045 59.2457 125.891 60.1031 126.337 61.201C126.783 62.2982 126.775 63.5036 126.314 64.5943C125.619 66.2412 124.015 67.3053 122.228 67.3053Z" fill="#332D2B"/>
<path d="M106.137 64.8043C106.072 65.2209 106.416 65.6197 106.903 65.6956C107.393 65.7723 107.841 65.4962 107.905 65.0796C107.971 64.663 107.627 64.2634 107.138 64.1875C106.651 64.1116 106.202 64.3877 106.137 64.8043Z" fill="#E4D7DD"/>
<path d="M101.317 67.9452C101.271 68.2456 101.518 68.533 101.87 68.5879C102.222 68.6428 102.545 68.4442 102.591 68.1438C102.638 67.8435 102.39 67.5561 102.039 67.5012C101.687 67.4463 101.364 67.6449 101.317 67.9452Z" fill="#E4D7DD"/>
<path d="M98.7853 72.0734C98.7005 72.6216 99.1518 73.1471 99.7952 73.2472C100.438 73.3474 101.028 72.9841 101.114 72.4359C101.198 71.8877 100.747 71.3621 100.104 71.262C99.461 71.1619 98.8708 71.5252 98.7853 72.0734Z" fill="#E4D7DD"/>
<path d="M96.624 75.6283C96.5731 75.9618 96.8468 76.2807 97.2376 76.3412C97.6275 76.4018 97.986 76.1814 98.0385 75.8487C98.0893 75.5153 97.8156 75.1964 97.4249 75.1359C97.0349 75.0745 96.6757 75.2949 96.624 75.6283Z" fill="#E4D7DD"/>
<path d="M96.2875 79.2945C96.252 79.5197 96.4385 79.7361 96.7025 79.7772C96.9673 79.8184 97.2103 79.6691 97.245 79.4438C97.2798 79.2186 97.0941 79.0022 96.8301 78.961C96.5653 78.9199 96.3223 79.0692 96.2875 79.2945Z" fill="#E4D7DD"/>
<path d="M112.929 58.944C112.149 60.7896 113.014 62.9169 114.86 63.696C116.705 64.475 118.832 63.6104 119.611 61.7648C120.39 59.9193 119.526 57.7928 117.681 57.0137C115.836 56.2346 113.708 57.0984 112.929 58.944Z" fill="#F5F2E9"/>
<path d="M116.271 57.534C115.135 57.534 114.115 58.2113 113.672 59.2584C113.38 59.9519 113.375 60.7189 113.659 61.4164C113.941 62.114 114.48 62.6597 115.173 62.952C115.524 63.1005 115.892 63.1748 116.268 63.1748C117.405 63.1748 118.425 62.4983 118.868 61.452C119.16 60.7577 119.166 59.9915 118.881 59.2932C118.599 58.5956 118.06 58.0507 117.366 57.7576C117.016 57.6099 116.648 57.534 116.271 57.534ZM116.268 64.7895C115.675 64.7895 115.096 64.6716 114.545 64.4399C113.455 63.9789 112.608 63.1207 112.162 62.0244C111.716 60.9272 111.724 59.721 112.185 58.6303C112.881 56.9834 114.484 55.9193 116.271 55.9193C116.865 55.9193 117.444 56.0372 117.994 56.2697C119.085 56.7299 119.932 57.5881 120.378 58.686C120.824 59.7832 120.816 60.9886 120.356 62.0785C119.66 63.7254 118.056 64.7895 116.268 64.7895Z" fill="#332D2B"/>
<path d="M121.26 62.4615C121.035 62.9959 121.285 63.6127 121.82 63.8388C122.354 64.064 122.971 63.8137 123.197 63.2793C123.423 62.744 123.172 62.1272 122.638 61.902C122.103 61.6759 121.486 61.9262 121.26 62.4615Z" fill="#332D2B"/>
<path d="M115.301 59.9456C115.076 60.4809 115.326 61.0969 115.861 61.323C116.395 61.5482 117.012 61.2979 117.238 60.7635C117.464 60.229 117.213 59.6122 116.679 59.3862C116.144 59.1601 115.527 59.4112 115.301 59.9456Z" fill="#332D2B"/>
<path d="M93.3066 81.5458C90.8845 81.2769 84.1562 80.7384 79.3122 85.9861C75.877 89.7079 80.7929 94.3283 83.7526 91.6374C86.7131 88.9466 90.2112 88.1393 92.7681 87.8696" fill="#9F9294"/>
<path d="M81.7562 93.4551C80.5477 93.4551 79.3762 92.8981 78.5358 92.052C76.9905 90.4938 76.3414 87.7174 78.5713 85.3019C82.1316 81.4444 87.125 79.8443 93.4174 80.5426C93.972 80.6048 94.3708 81.1037 94.3095 81.6576C94.2481 82.2114 93.7516 82.6143 93.1945 82.5489C87.5755 81.9256 83.1545 83.311 80.0544 86.6711C78.6262 88.218 79.1154 89.7705 79.9688 90.6303C80.7438 91.411 82.0453 91.8251 83.0738 90.891C85.5628 88.6281 88.7889 87.2742 92.6625 86.8665C93.2147 86.8027 93.7137 87.2096 93.7718 87.7642C93.8299 88.3189 93.4279 88.8146 92.874 88.8735C89.388 89.2408 86.6261 90.3889 84.4309 92.3838C83.6042 93.1362 82.6701 93.4551 81.7562 93.4551Z" fill="#332D2B"/>
<path d="M55.0456 70.1958C35.0641 68.5812 17.3318 54.2203 13.2661 48.5997C8.44229 42.6206 17.5797 38.1972 22.0442 39.9515C30.2153 43.0807 37.8696 53.3048 54.7308 61.3168C59.2752 63.151 61.9015 70.3153 55.0456 70.1958Z" fill="#564389"/>
<path d="M19.7754 40.7742C17.1168 40.7742 14.2524 42.2411 13.3902 44.0447C12.8364 45.2032 13.1117 46.4796 14.208 47.8392C18.2705 53.4518 35.7517 67.4219 55.1431 68.9889L55.2141 68.9865C56.3565 68.9865 57.7645 68.7467 57.9865 67.6043C58.2836 66.0736 56.6302 63.39 54.2776 62.4406C44.6784 57.8816 38.0171 52.6267 32.6645 48.4043C28.4098 45.049 25.0505 42.3994 21.6105 41.0818C21.0954 40.8792 20.464 40.7742 19.7754 40.7742ZM55.2141 71.4085L55.0244 71.4069C33.5864 69.6767 15.9567 54.385 12.285 49.3102C10.6396 47.2724 10.2416 45.0135 11.2055 43C12.6483 39.9814 16.6978 38.3522 19.7754 38.3522C20.7781 38.3522 21.6904 38.5105 22.4864 38.8237C26.2607 40.2696 29.9228 43.1583 34.1645 46.5031C39.4219 50.6503 45.9637 55.8108 55.2504 60.2237C58.4983 61.5316 60.9187 65.2098 60.3633 68.0661C60.1687 69.0712 59.2766 71.4085 55.2141 71.4085Z" fill="#332D2B"/>
<path d="M22.3991 52.1833C2.43697 55.818 -2.83654 43.1299 11.3209 40.4076C15.2033 39.6608 17.5519 39.4291 21.8808 39.8893" fill="#564389"/>
<path d="M15.5967 54.0523C7.60892 54.0523 2.9054 51.0337 2.21109 47.3207C1.67825 44.4741 3.68367 40.6433 11.0926 39.2184C15.0162 38.4635 17.5246 38.2084 22.0093 38.6847C22.6746 38.7558 23.1557 39.3524 23.0855 40.0176C23.0145 40.682 22.4162 41.1648 21.7534 41.0938C17.548 40.6457 15.302 40.8758 11.5495 41.5968C6.2518 42.6148 4.2375 44.9827 4.59192 46.8759C5.12557 49.7298 11.0861 53.0124 22.1813 50.9917C22.8401 50.8714 23.4706 51.309 23.5901 51.9661C23.7104 52.6241 23.2736 53.2546 22.6156 53.3749C20.0548 53.8408 17.7103 54.0523 15.5967 54.0523Z" fill="#332D2B"/>
<path d="M5.47038 44.9481C2.04083 44.6866 2.24185 39.8708 17.7774 39.7836L5.47038 44.9481Z" fill="#564389"/>
<path d="M5.47186 46.1595C5.44037 46.1595 5.40969 46.1587 5.37821 46.1563C3.61418 46.0215 2.41691 44.9558 2.46535 43.5656C2.57434 40.492 8.29591 38.6255 17.77 38.573H17.7772C18.4425 38.573 18.9842 39.1099 18.9882 39.7767C18.9915 40.4452 18.453 40.9902 17.7837 40.995C8.19741 41.0483 5.33299 42.91 4.92933 43.576C5.03186 43.6358 5.2345 43.7157 5.56228 43.7407C6.22914 43.7916 6.72887 44.3737 6.67721 45.0406C6.62957 45.6759 6.09835 46.1595 5.47186 46.1595Z" fill="#332D2B"/>
<path d="M9.50534 49.6636C3.55368 49.4012 0.930651 48.9645 1.2334 46.8694C1.47641 45.1869 2.94818 43.1145 10.5137 43.7257" fill="#564389"/>
<path d="M9.50625 50.8746C9.48849 50.8746 9.46992 50.8746 9.45216 50.873C4.27634 50.6453 1.77118 50.3054 0.602973 48.895C0.259049 48.48 -0.118783 47.7615 0.0354174 46.6966C0.753137 41.7227 8.17415 42.3209 10.6115 42.5187C11.2783 42.5728 11.7757 43.1565 11.7208 43.8233C11.6675 44.4902 11.0846 44.9867 10.4169 44.9326C6.95265 44.6533 2.75694 44.7913 2.43158 47.0422C2.39929 47.2674 2.4445 47.3215 2.46791 47.3506C3.14769 48.1716 7.47742 48.3622 9.55792 48.4534C10.2272 48.4833 10.7447 49.0484 10.7148 49.7161C10.6866 50.3668 10.1505 50.8746 9.50625 50.8746Z" fill="#332D2B"/>
<path d="M17.8783 52.6714C10.312 53.767 3.45286 51.4968 4.05836 49.0522C4.61703 46.7916 9.50544 46.7819 12.4304 47.7427" fill="#564389"/>
<path d="M14.0055 54.1583C9.42309 54.1583 5.24433 53.0596 3.60463 51.2487C2.92647 50.5011 2.67055 49.6171 2.88207 48.7605C3.02739 48.1744 3.43106 47.3469 4.53065 46.739C6.64182 45.5707 10.3709 45.792 12.809 46.592C13.4444 46.8011 13.7891 47.4849 13.5817 48.1203C13.3726 48.7557 12.6888 49.0996 12.0526 48.8937C9.87116 48.1768 6.96314 48.1607 5.7037 48.8582C5.29761 49.0826 5.24917 49.2788 5.23303 49.3426C5.22576 49.3725 5.26532 49.4734 5.40014 49.6228C6.58854 50.9355 11.6538 52.3499 17.7039 51.4732C18.3659 51.373 18.9803 51.8357 19.0764 52.4977C19.1716 53.1605 18.7131 53.7741 18.0519 53.8701C16.7036 54.0655 15.3376 54.1583 14.0055 54.1583Z" fill="#332D2B"/>
<path d="M22.7334 40.2389C19.2602 39.2152 18.8113 37.875 16.1633 36.8271C10.9931 34.7822 9.36231 41.772 15.9445 43.3003" fill="#564389"/>
<path d="M15.9461 44.5117C15.8556 44.5117 15.7628 44.5021 15.6708 44.4803C12.9775 43.8554 11.0601 42.2496 10.5426 40.186C10.1656 38.6852 10.6072 37.161 11.6938 36.2067C12.9178 35.1338 14.7092 34.9505 16.6089 35.7021C17.8748 36.2027 18.6805 36.7573 19.4596 37.2942C20.3961 37.9384 21.2793 38.548 23.0756 39.0776C23.7175 39.2665 24.084 39.9398 23.8959 40.5808C23.7054 41.2235 23.032 41.5884 22.391 41.4003C20.2249 40.7617 19.0882 39.9794 18.0855 39.2883C17.3565 38.7869 16.7276 38.3534 15.7176 37.9538C14.6923 37.5485 13.8083 37.5743 13.2916 38.028C12.8839 38.3857 12.7337 38.9718 12.8911 39.5967C13.1834 40.7609 14.4275 41.7055 16.2189 42.1212C16.8705 42.2722 17.2749 42.9229 17.1248 43.5744C16.9948 44.1339 16.4967 44.5117 15.9461 44.5117Z" fill="#332D2B"/>
<path d="M78.1523 67.4104C82.4926 63.8331 83.5712 60.3502 81.5682 59.5243C79.566 58.6976 74.9698 61.5281 70.7168 66.0694C62.4933 74.8483 62.9825 81.483 66.4153 82.2387C69.4993 82.9184 77.5969 77.586 81.5359 74.2993C85.4757 71.0119 81.9 68.531 78.3913 70.4023" fill="#332D2B"/>
<path d="M66.9972 82.7C66.7575 82.7 66.5338 82.6782 66.3288 82.633C65.1646 82.3763 64.3072 81.5358 63.9132 80.2651C63.0663 77.5331 64.3314 72.2967 70.4219 65.7937C74.9188 60.9924 79.5634 58.2604 81.7222 59.1517C82.3939 59.4278 82.8064 59.9558 82.9146 60.6776C83.1891 62.5054 81.463 65.2051 78.4097 67.7224C78.2377 67.8645 77.9826 67.8402 77.8413 67.6675C77.6992 67.4955 77.7235 67.2412 77.8954 67.0991C81.0723 64.4817 82.3043 62.0476 82.1162 60.7971C82.0508 60.3595 81.8207 60.0656 81.4146 59.8977C79.6215 59.1566 75.1481 61.9289 71.0121 66.3459C65.1573 72.5962 63.9043 77.5105 64.6842 80.0261C64.9934 81.0216 65.6215 81.6505 66.5023 81.8442C69.2352 82.4465 76.9718 77.5815 81.2773 73.9889C82.6595 72.836 83.177 71.6896 82.6611 70.9234C82.1041 70.0943 80.3844 69.7964 78.5817 70.7588C78.3847 70.8629 78.14 70.7886 78.0351 70.5916C77.9301 70.3955 78.0052 70.1516 78.2014 70.0459C80.4321 68.8567 82.5602 69.329 83.3304 70.4721C83.6194 70.9008 84.3622 72.4671 81.7948 74.6089C78.601 77.2731 70.7941 82.6992 66.9972 82.7Z" fill="#332D2B"/>
<path d="M76.164 68.1644C76.164 68.1644 81.976 63.205 84.2018 65.0392C86.4277 66.8743 81.465 70.5671 75.6086 72.063" fill="#332D2B"/>
<path d="M75.6081 72.4672C75.4281 72.4672 75.2634 72.3453 75.2174 72.1637C75.1617 71.9473 75.2924 71.7277 75.5088 71.672C80.3383 70.4376 83.9608 67.9147 84.3136 66.3331C84.4008 65.9423 84.2837 65.6307 83.9454 65.3514C82.334 64.0241 77.9712 67.1533 76.4259 68.4717C76.2564 68.617 76.0005 68.596 75.8568 68.4273C75.7123 68.257 75.7316 68.0018 75.902 67.8573C76.5236 67.3277 82.0418 62.7364 84.4589 64.7289C85.0337 65.202 85.2558 65.818 85.1016 66.5099C84.6317 68.617 80.5046 71.228 75.7082 72.4543C75.6751 72.4632 75.6412 72.4672 75.6081 72.4672Z" fill="#332D2B"/>
<path d="M78.1523 67.4104C82.4926 63.8331 83.5712 60.3502 81.5682 59.5243C79.566 58.6976 74.9698 61.5281 70.7168 66.0694C62.4933 74.8483 62.9825 81.483 66.4153 82.2387C69.4993 82.9184 77.5969 77.586 81.5359 74.2993C85.4757 71.0119 81.9 68.531 78.3913 70.4023" fill="#332D2B"/>
<path d="M66.9972 82.7C66.7575 82.7 66.5338 82.6782 66.3288 82.633C65.1646 82.3763 64.3072 81.5358 63.9132 80.2651C63.0663 77.5331 64.3314 72.2967 70.4219 65.7937C74.9188 60.9924 79.5634 58.2604 81.7222 59.1517C82.3939 59.4278 82.8064 59.9558 82.9146 60.6776C83.1891 62.5054 81.463 65.2051 78.4097 67.7224C78.2377 67.8645 77.9826 67.8402 77.8413 67.6675C77.6992 67.4955 77.7235 67.2412 77.8954 67.0991C81.0723 64.4817 82.3043 62.0476 82.1162 60.7971C82.0508 60.3595 81.8207 60.0656 81.4146 59.8977C79.6215 59.1566 75.1481 61.9289 71.0121 66.3459C65.1573 72.5962 63.9043 77.5105 64.6842 80.0261C64.9934 81.0216 65.6215 81.6505 66.5023 81.8442C69.2352 82.4465 76.9718 77.5815 81.2773 73.9889C82.6595 72.836 83.177 71.6896 82.6611 70.9234C82.1041 70.0943 80.3844 69.7964 78.5817 70.7588C78.3847 70.8629 78.14 70.7886 78.0351 70.5916C77.9301 70.3955 78.0052 70.1516 78.2014 70.0459C80.4321 68.8567 82.5602 69.329 83.3304 70.4721C83.6194 70.9008 84.3622 72.4671 81.7948 74.6089C78.601 77.2731 70.7941 82.6992 66.9972 82.7Z" fill="#332D2B"/>
<path d="M76.164 68.1644C76.164 68.1644 81.976 63.205 84.2018 65.0392C86.4277 66.8743 81.465 70.5671 75.6086 72.063" fill="#332D2B"/>
<path d="M75.6081 72.4672C75.4281 72.4672 75.2634 72.3453 75.2174 72.1637C75.1617 71.9473 75.2924 71.7277 75.5088 71.672C80.3383 70.4376 83.9608 67.9147 84.3136 66.3331C84.4008 65.9423 84.2837 65.6307 83.9454 65.3514C82.334 64.0241 77.9712 67.1533 76.4259 68.4717C76.2564 68.617 76.0005 68.596 75.8568 68.4273C75.7123 68.257 75.7316 68.0018 75.902 67.8573C76.5236 67.3277 82.0418 62.7364 84.4589 64.7289C85.0337 65.202 85.2558 65.818 85.1016 66.5099C84.6317 68.617 80.5046 71.228 75.7082 72.4543C75.6751 72.4632 75.6412 72.4672 75.6081 72.4672Z" fill="#332D2B"/>
<path d="M78.1523 67.4104C82.4926 63.8331 83.5712 60.3502 81.5682 59.5243C79.566 58.6976 74.9698 61.5281 70.7168 66.0694C62.4933 74.8483 62.9825 81.483 66.4153 82.2387C69.4993 82.9184 77.5969 77.586 81.5359 74.2993C85.4757 71.0119 81.9 68.531 78.3913 70.4023" stroke="#332D2B" stroke-width="1.33333" stroke-miterlimit="10" stroke-linecap="round"/>
<path d="M66.9972 82.7C66.7575 82.7 66.5338 82.6782 66.3288 82.633C65.1646 82.3763 64.3072 81.5358 63.9132 80.2651C63.0663 77.5331 64.3314 72.2967 70.4219 65.7937C74.9188 60.9924 79.5634 58.2604 81.7222 59.1517C82.3939 59.4278 82.8064 59.9558 82.9146 60.6776C83.1891 62.5054 81.463 65.2051 78.4097 67.7224C78.2377 67.8645 77.9826 67.8402 77.8413 67.6675C77.6992 67.4955 77.7235 67.2412 77.8954 67.0991C81.0723 64.4817 82.3043 62.0476 82.1162 60.7971C82.0508 60.3595 81.8207 60.0656 81.4146 59.8977C79.6215 59.1566 75.1481 61.9289 71.0121 66.3459C65.1573 72.5962 63.9043 77.5105 64.6842 80.0261C64.9934 81.0216 65.6215 81.6505 66.5023 81.8442C69.2352 82.4465 76.9718 77.5815 81.2773 73.9889C82.6595 72.836 83.177 71.6896 82.6611 70.9234C82.1041 70.0943 80.3844 69.7964 78.5817 70.7588C78.3847 70.8629 78.14 70.7886 78.0351 70.5916C77.9301 70.3955 78.0052 70.1516 78.2014 70.0459C80.4321 68.8567 82.5602 69.329 83.3304 70.4721C83.6194 70.9008 84.3622 72.4671 81.7948 74.6089C78.601 77.2731 70.7941 82.6992 66.9972 82.7Z" stroke="#332D2B" stroke-width="1.33333" stroke-miterlimit="10" stroke-linecap="round"/>
<path d="M76.164 68.1644C76.164 68.1644 81.976 63.205 84.2018 65.0392C86.4277 66.8743 81.465 70.5671 75.6086 72.063" stroke="#332D2B" stroke-width="1.33333" stroke-miterlimit="10" stroke-linecap="round"/>
<path d="M75.6081 72.4672C75.4281 72.4672 75.2634 72.3453 75.2174 72.1637C75.1617 71.9473 75.2924 71.7277 75.5088 71.672C80.3383 70.4376 83.9608 67.9147 84.3136 66.3331C84.4008 65.9423 84.2837 65.6307 83.9454 65.3514C82.334 64.0241 77.9712 67.1533 76.4259 68.4717C76.2564 68.617 76.0005 68.596 75.8568 68.4273C75.7123 68.257 75.7316 68.0018 75.902 67.8573C76.5236 67.3277 82.0418 62.7364 84.4589 64.7289C85.0337 65.202 85.2558 65.818 85.1016 66.5099C84.6317 68.617 80.5046 71.228 75.7082 72.4543C75.6751 72.4632 75.6412 72.4672 75.6081 72.4672Z" stroke="#332D2B" stroke-width="1.33333" stroke-miterlimit="10" stroke-linecap="round"/>
<path d="M49.3242 110.602C48.3207 110.602 47.5077 109.789 47.5077 108.786C47.5077 107.783 48.3207 106.969 49.3242 106.969C49.6261 106.969 49.8296 106.952 49.9612 106.931C49.962 106.902 49.9628 106.871 49.9628 106.834C49.9628 106.68 49.9822 106.525 50.0217 106.376L57.3249 78.4164C57.5784 77.4459 58.5698 76.8647 59.541 77.1174C60.5114 77.3709 61.0935 78.3631 60.84 79.3343L53.5901 107.089C53.5167 108.749 52.6819 110.602 49.3242 110.602Z" fill="#FED300"/>
<path d="M59.0808 78.2688C58.8063 78.2688 58.5657 78.4553 58.4963 78.7225L51.1932 106.681C51.1803 106.732 51.1738 106.783 51.1738 106.835L51.1714 106.965C51.156 107.552 50.7209 108.042 50.1404 108.129C49.9135 108.163 49.6382 108.18 49.3242 108.18C48.99 108.18 48.7179 108.452 48.7179 108.786C48.7179 109.119 48.99 109.391 49.3242 109.391C51.9408 109.391 52.3323 108.132 52.3808 107.036C52.3848 106.95 52.3977 106.865 52.4187 106.783L59.6686 79.0277C59.7235 78.817 59.6524 78.649 59.6048 78.5683C59.558 78.4876 59.4465 78.3447 59.235 78.289C59.1842 78.2761 59.1317 78.2688 59.0808 78.2688ZM49.3242 111.813C47.6546 111.813 46.2967 110.455 46.2967 108.786C46.2967 107.251 47.4439 105.98 48.9254 105.785L56.1534 78.1105C56.5014 76.7776 57.7051 75.8468 59.0808 75.8468C59.3384 75.8468 59.5959 75.8807 59.8462 75.9461C60.6293 76.1495 61.2848 76.6468 61.6942 77.3444C62.1027 78.0427 62.2157 78.8573 62.0106 79.6404L54.7923 107.279C54.693 108.746 53.9325 111.813 49.3242 111.813Z" fill="#332D2B"/>
<path d="M65.7429 110.602C62.2116 110.602 61.4705 108.553 61.4705 106.834C61.4705 106.744 61.4777 106.654 61.4906 106.564L65.6952 78.6045C65.8454 77.6131 66.7722 76.9276 67.762 77.0794C68.7542 77.228 69.4372 78.1532 69.2887 79.1454L65.1091 106.932C65.2415 106.952 65.4433 106.969 65.7429 106.969C66.7456 106.969 67.5594 107.783 67.5594 108.786C67.5594 109.789 66.7456 110.602 65.7429 110.602Z" fill="#FED300"/>
<path d="M67.4877 78.2684C67.193 78.2684 66.9371 78.4904 66.8935 78.7851L62.6881 106.744C62.6841 106.774 62.6816 106.804 62.6816 106.834C62.6816 108.025 63.0296 109.391 65.7422 109.391C66.0765 109.391 66.3486 109.119 66.3486 108.786C66.3486 108.452 66.0765 108.18 65.7422 108.18C65.4274 108.18 65.1545 108.163 64.9309 108.13C64.6128 108.082 64.327 107.91 64.1357 107.652C63.9443 107.394 63.8644 107.07 63.9112 106.752L68.0916 78.9652C68.1416 78.6358 67.9124 78.3257 67.5822 78.2765C67.5483 78.2709 67.5176 78.2684 67.4877 78.2684ZM65.7422 111.813C62.2578 111.813 60.2596 109.998 60.2596 106.834C60.2596 106.683 60.2709 106.535 60.2927 106.385L64.499 78.4242C64.7428 76.8055 66.2791 75.6268 67.9455 75.882C69.5924 76.129 70.734 77.6742 70.4861 79.3252L66.4955 105.853C67.8018 106.188 68.7697 107.376 68.7697 108.786C68.7697 110.455 67.4118 111.813 65.7422 111.813Z" fill="#332D2B"/>
<path d="M70.4993 62.6279C72.629 64.5171 74.4794 66.7994 74.9768 69.8721C76.0917 76.7595 70.8836 81.8004 63.4545 83.0026C56.027 84.2055 49.4941 81.0642 48.38 74.1768C47.8818 71.1041 48.9185 68.3551 50.3426 65.8903C53.2716 60.7064 63.5288 56.9669 70.4993 62.6279Z" fill="#332D2B"/>
<path d="M62.3275 61.0081C57.8605 61.0081 53.161 63.3631 51.397 66.4867C49.7767 69.2897 49.1995 71.6689 49.5749 73.9827C50.379 78.9543 54.5295 82.0432 60.4053 82.0432C61.3345 82.0432 62.2952 81.964 63.2616 81.8074C66.6944 81.252 69.6307 79.8109 71.5279 77.749C73.4744 75.6362 74.2526 72.9792 73.782 70.0656C73.4065 67.7501 72.1084 65.6745 69.6952 63.5334C67.6737 61.8929 65.112 61.0081 62.3275 61.0081ZM60.4053 84.4652C53.2579 84.4652 48.1919 80.5964 47.1844 74.3703C46.5676 70.5653 48.0934 67.3626 49.2939 65.2845C51.4842 61.4077 56.9684 58.5861 62.3275 58.5861C65.6747 58.5861 68.7644 59.659 71.2623 61.6879C73.0982 63.3155 75.5565 65.8731 76.1717 69.678C76.7667 73.3522 75.7769 76.7099 73.3105 79.3895C71.0467 81.8478 67.6155 83.5561 63.6491 84.1979C62.5544 84.3747 61.4637 84.4652 60.4053 84.4652Z" fill="#332D2B"/>
<path d="M76.7112 88.5784C76.0557 80.2573 69.8061 70.9754 63.4936 66.1806C60.19 63.6714 65.0606 60.3307 71.7978 64.2083C81.7684 69.9468 85.5604 82.5178 86.4533 86.527C87.0936 89.406 84.653 92.1073 81.5448 92.8274C78.4381 93.5476 77.0915 93.4055 76.7112 88.5784Z" fill="#564389"/>
<path d="M65.9803 63.4474C64.3721 63.4474 63.5809 64.0142 63.4614 64.371C63.3589 64.6754 63.7262 65.0903 64.1049 65.3769C70.3367 70.1111 77.0141 79.5739 77.7173 88.4998C78.0039 92.1376 78.7668 92.1376 79.4402 92.1376C79.9778 92.1376 80.6907 91.9899 81.3172 91.8437C83.7344 91.2835 86.0094 89.1755 85.4685 86.747C84.8929 84.1604 81.5029 70.9588 71.2942 65.0831C68.9456 63.7316 67.1073 63.4474 65.9803 63.4474ZM79.4402 94.1559C76.5378 94.1559 75.9299 91.5135 75.7054 88.658C75.0483 80.3239 68.7575 71.4465 62.8834 66.9843C61.1355 65.6563 61.3672 64.2644 61.5488 63.7267C62.026 62.3099 63.7238 61.4291 65.9803 61.4291C67.3544 61.4291 69.5657 61.7601 72.3009 63.3336C83.2427 69.6316 86.8305 83.5767 87.4384 86.3079C88.161 89.5533 85.6195 92.9183 81.7733 93.8096C80.9983 93.9904 80.1789 94.1559 79.4402 94.1559Z" fill="#332D2B"/>
<path d="M81.1484 92.3616C82.6016 94.3807 87.6668 92.5448 86.4696 86.8434L81.1484 92.3616Z" fill="#564389"/>
<path d="M82.8649 94.1615C81.8339 94.1615 80.8966 93.7393 80.329 92.9505C80.0037 92.4976 80.107 91.8679 80.5599 91.5426C81.0112 91.2164 81.6418 91.3197 81.9679 91.7718C82.2715 92.1933 83.0167 92.2659 83.7416 91.9462C84.9672 91.4061 86.0676 89.8367 85.4814 87.0506C85.3676 86.5056 85.7164 85.9703 86.2621 85.8557C86.8079 85.7378 87.3424 86.0906 87.457 86.6364C88.2918 90.6069 86.4155 92.9723 84.5562 93.7926C83.9927 94.0413 83.4163 94.1615 82.8649 94.1615Z" fill="#332D2B"/>
<path d="M78.6767 92.2004C79.4259 95.3587 85.1677 93.7271 83.4295 87.53L78.6767 92.2004Z" fill="#564389"/>
<path d="M80.6226 94.7805C80.3303 94.7805 80.0389 94.7409 79.7571 94.661C78.7116 94.3631 77.96 93.5509 77.6952 92.4328C77.5668 91.891 77.9019 91.3469 78.4444 91.2185C78.9893 91.0918 79.5302 91.4252 79.6594 91.9677C79.7547 92.3706 79.9735 92.6241 80.3093 92.7194C80.7978 92.859 81.4129 92.6483 81.8804 92.1833C82.7773 91.2896 82.9881 89.6927 82.4568 87.8035C82.3067 87.2666 82.6199 86.7088 83.1568 86.5586C83.6929 86.4076 84.2499 86.7217 84.4009 87.2578C85.1339 89.8719 84.7351 92.1881 83.3045 93.6139C82.5473 94.3679 81.5744 94.7805 80.6226 94.7805Z" fill="#332D2B"/>
<path d="M76.306 86.2483C76.7597 87.9114 76.9042 88.4903 76.2487 90.4739C75.1483 93.8033 81.0789 94.8351 80.3596 88.1665" fill="#564389"/>
<path d="M77.9128 94.0958C77.2508 94.0958 76.6025 93.8705 76.081 93.4313C75.1647 92.6579 74.8684 91.434 75.2906 90.1584C75.8573 88.4412 75.7564 88.0714 75.3326 86.5133C75.1865 85.9756 75.5037 85.4218 76.0414 85.2748C76.5799 85.1295 77.1329 85.446 77.2799 85.9837C77.7893 87.8518 77.9282 88.6083 77.2064 90.7913C77.049 91.2701 77.1111 91.6592 77.3824 91.8885C77.6472 92.1113 78.038 92.1388 78.3795 91.9563C78.6838 91.7949 79.6559 91.0497 79.3563 88.2749C79.2966 87.7211 79.6978 87.2229 80.2517 87.1632C80.8095 87.1043 81.3036 87.5039 81.3626 88.0577C81.7864 91.983 80.0805 93.3385 79.3273 93.7389C78.8768 93.9779 78.3916 94.0958 77.9128 94.0958Z" fill="#332D2B"/>
<path d="M54.2422 45.3376C54.2422 45.3376 57.1559 53.7969 55.3717 57.932C54.1365 60.7948 48.599 65.2796 48.5756 68.3603C48.5586 70.7347 52.3353 71.27 56.3373 67.943C56.3373 67.943 57.7646 71.7649 61.5373 71.1545C65.3092 70.5434 65.4585 66.4663 65.4585 66.4663C70.3057 68.3612 73.72 66.6617 72.9546 64.4141C71.9608 61.498 65.2914 58.9896 63.2157 56.6621C60.2181 53.3004 60.315 44.3543 60.315 44.3543C61.1191 33.5869 50.3517 32.6673 54.2422 45.3376Z" fill="white"/>
<path d="M56.8748 65.9218L57.4715 67.5195C57.5086 67.6148 58.4613 70.0093 60.7379 70.0093C60.9325 70.0093 61.136 69.9924 61.3434 69.9585C64.023 69.5249 64.2329 66.7324 64.2482 66.4159L64.329 64.7318L65.8992 65.3381C67.1272 65.8193 68.3325 66.0728 69.3861 66.0728C70.7351 66.0728 71.5045 65.6667 71.7532 65.3187C71.8339 65.2057 71.8969 65.0644 71.8089 64.8045C71.3576 63.4812 68.7588 61.8932 66.671 60.6184C64.9223 59.5503 63.2697 58.542 62.3122 57.4682C59.0409 53.7989 59.1007 44.7261 59.1047 44.3418C59.3913 40.465 58.1189 38.6517 57.5595 38.0478C56.7505 37.1751 55.818 36.9951 55.2424 37.775C54.9017 38.2359 53.9055 40.1178 55.3998 44.982C55.5121 45.3074 58.4314 53.8966 56.4841 58.4112C55.9141 59.732 54.6652 61.211 53.342 62.7764C51.7628 64.6446 49.797 66.9705 49.7873 68.3696C49.7857 68.603 49.8607 68.7095 49.9277 68.7757C50.1159 68.9663 50.5139 69.0785 50.9942 69.0785C51.6199 69.0785 53.3185 68.8775 55.5629 67.0117L56.8748 65.9218ZM60.7379 72.4313C58.2715 72.4313 56.7578 70.9273 55.9496 69.7478C54.2664 70.8853 52.5427 71.5005 50.9942 71.5005C49.8325 71.5005 48.8701 71.1485 48.2089 70.4824C47.6511 69.9205 47.3596 69.1842 47.3661 68.3519C47.3822 66.0768 49.4716 63.604 51.4924 61.2126C52.6428 59.8507 53.832 58.4435 54.2599 57.4521C55.5718 54.4133 53.8651 47.9619 53.0973 45.732C51.8153 41.5589 51.8896 38.2367 53.2943 36.3363C54.004 35.3756 55.0107 34.8459 56.1297 34.8459C57.2656 34.8459 58.4039 35.3982 59.334 36.4009C60.9745 38.1681 61.7721 41.1004 61.5227 44.4443C61.5017 46.7275 61.9215 53.3912 64.1207 55.8568C64.8384 56.6625 66.4119 57.6232 67.9329 58.5525C70.6052 60.1833 73.3679 61.8698 74.1009 64.0238C74.4247 64.9748 74.2898 65.9355 73.7223 66.7283C72.919 67.8505 71.3382 68.4948 69.3861 68.4948C68.4342 68.4948 67.4364 68.3487 66.4038 68.0596C65.8903 69.8091 64.5599 71.8912 61.731 72.349C61.3959 72.4039 61.0625 72.4313 60.7379 72.4313Z" fill="#332D2B"/>
<path d="M71.8294 29.5335C74.6971 39.8714 66.1111 47.1245 53.9712 50.4918C41.8322 53.8592 30.7362 52.0661 27.8685 41.7282C25.0009 31.3903 33.5877 24.1373 45.7267 20.7699C57.8658 17.4025 68.9618 19.1956 71.8294 29.5335Z" fill="white"/>
<path d="M56.088 20.4349C53.0201 20.4349 49.6438 20.9402 46.0504 21.9365C41.1685 23.292 25.511 28.6979 29.035 41.4045C31.1955 49.1921 38.1539 50.8269 43.6106 50.8269C46.6777 50.8269 50.0548 50.3215 53.6482 49.3253C59.7848 47.6226 64.6247 45.0198 67.6442 41.7985C70.8856 38.3407 71.9012 34.3226 70.6628 29.8572C68.5024 22.0697 61.5448 20.4349 56.088 20.4349ZM43.6106 53.2481C34.7098 53.2481 28.7048 49.272 26.7018 42.052C23.9182 32.0152 30.9097 23.6238 45.4037 19.6033C49.2071 18.5481 52.8021 18.0129 56.088 18.0129C64.988 18.0129 70.993 21.9898 72.996 29.2098C74.4556 34.4703 73.2156 39.3959 69.4114 43.4552C66.0876 47.001 60.8601 49.8371 54.2949 51.6585C50.4907 52.7128 46.8965 53.2481 43.6106 53.2481Z" fill="#332D2B"/>
<path d="M66.4863 37.0194C67.3105 38.6155 66.684 40.5773 65.0888 41.4016C63.4919 42.2251 61.53 41.5994 60.7066 40.0033C59.8823 38.408 60.5088 36.4462 62.104 35.6219C63.7001 34.7976 65.662 35.4233 66.4863 37.0194Z" fill="#F19C9A"/>
<path d="M39.6866 37.133C39.9675 38.0687 39.4767 39.0432 38.5902 39.3088C37.7037 39.5752 36.7576 39.0319 36.4766 38.0962C36.1965 37.1605 36.6865 36.186 37.573 35.9204C38.4586 35.654 39.4048 36.1965 39.6866 37.133Z" fill="#332D2B"/>
<path d="M42.1694 16.2823C38.8545 17.3117 31.72 21.1917 28.46 26.9544C25.1992 32.7172 31.5901 32.2013 35.0438 28.6466C35.0438 28.6466 36.4381 31.8614 40.2148 30.9822C43.9923 30.1014 45.5319 25.9881 45.5319 25.9881C45.5319 25.9881 49.0172 29.7963 53.5423 28.2906C58.0666 26.7833 56.7506 22.0386 56.7506 22.0386C56.7506 22.0386 63.5556 23.9205 66.6542 21.8045C69.7535 19.6884 59.8314 10.7965 42.1694 16.2823Z" fill="#332D2B"/>
<path d="M53.0438 15.7323C49.7111 15.7323 46.1734 16.3055 42.5283 17.4382C39.6404 18.336 32.6602 21.9875 29.5132 27.5509C28.7108 28.9694 28.7099 29.7073 28.8222 29.8986C28.8803 29.9979 29.129 30.0972 29.5536 30.0972C30.742 30.0972 32.7111 29.3093 34.1756 27.8028L35.435 26.5054L36.1544 28.1645C36.1826 28.2266 36.9811 29.9228 38.9526 29.9228C39.2634 29.9228 39.596 29.8825 39.9408 29.8025C43.049 29.0775 44.3843 25.5988 44.3981 25.5632L45.0899 23.7128L46.4253 25.1709C46.443 25.1894 48.5574 27.4322 51.396 27.4322C51.987 27.4322 52.5804 27.3345 53.16 27.1408C56.5533 26.0113 55.6248 22.5107 55.5837 22.3622L55.0129 20.3051L57.0724 20.871C57.0982 20.8791 59.7463 21.5992 62.358 21.5992C63.9598 21.5992 65.2095 21.3247 65.9716 20.8048C66.0168 20.7313 65.9781 20.4092 65.5542 19.878C63.9581 17.8815 59.362 15.7323 53.0438 15.7323ZM29.5536 32.5192C28.2603 32.5192 27.2576 32.0219 26.7304 31.1193C26.0506 29.9527 26.2783 28.3518 27.4053 26.3585C30.7848 20.3858 38.0338 16.2991 41.8097 15.126C45.6882 13.9207 49.4673 13.3103 53.0438 13.3103C62.1586 13.3103 67.445 17.1549 68.2887 19.8844C68.6512 21.0583 68.2959 22.1506 67.3368 22.8046C66.1549 23.6119 64.4805 24.0212 62.3588 24.0212C60.8023 24.0212 59.2724 23.8032 58.155 23.5933C58.1445 25.6997 57.2435 28.334 53.9246 29.4384C53.0979 29.7137 52.2478 29.8534 51.396 29.8534C49.0257 29.8534 47.0946 28.7861 45.9118 27.9142C45.0213 29.3892 43.2985 31.5068 40.4898 32.1608C39.9658 32.2827 39.4483 32.3448 38.9526 32.3448C36.9165 32.3448 35.5925 31.3494 34.8182 30.4645C33.1874 31.7256 31.2038 32.5192 29.5536 32.5192Z" fill="#332D2B"/>
<path d="M52.1452 14.6199C53.1495 18.2424 51.0278 21.9932 47.4053 22.9976C43.7836 24.0027 40.0327 21.881 39.0276 18.2585C38.0233 14.6368 40.4986 12.1615 44.1211 11.1564C47.7428 10.1521 51.14 10.9982 52.1452 14.6199Z" fill="#332D2B"/>
<path d="M46.8139 11.9752C46.0744 11.9752 45.2775 12.0931 44.4443 12.3232C42.8079 12.7777 41.5436 13.5229 40.7887 14.4771C40.0258 15.4427 39.8256 16.6061 40.1945 17.9349C40.8646 20.3497 43.08 22.037 45.5827 22.037C46.0865 22.037 46.591 21.9676 47.0819 21.8311C50.0553 21.0068 51.8032 17.9172 50.9781 14.9438C50.4315 12.9739 49.0308 11.9752 46.8139 11.9752ZM45.5827 24.4582C41.9957 24.4582 38.8205 22.0426 37.8605 18.5824C37.2825 16.4979 37.6385 14.5587 38.8891 12.9755C39.9645 11.6151 41.6615 10.5826 43.7977 9.98997C44.8407 9.70095 45.8556 9.5532 46.8139 9.5532C50.107 9.5532 52.4757 11.2825 53.3121 14.2963C54.4932 18.5558 51.9889 22.9832 47.7294 24.1651C47.0278 24.3597 46.3053 24.4582 45.5827 24.4582Z" fill="#332D2B"/>
<path d="M75.4308 90.9847C74.0196 90.6166 70.7499 83.4111 73.6814 82.2389C76.0363 81.2967 77.3563 85.0541 77.5501 86.7462C77.8835 89.6696 77.3515 91.4861 75.4308 90.9847Z" fill="#9F9294"/>
<path d="M74.4123 83.0985C74.3041 83.0985 74.1838 83.1244 74.0562 83.176C73.9246 83.2285 73.5783 83.3674 73.5169 84.232C73.366 86.365 75.1017 89.6581 75.7581 90.0351C75.813 90.0416 75.926 90.0586 76.0213 90.0586C76.1811 90.0586 76.2352 90.0125 76.2804 89.9617C76.3725 89.8591 76.8173 89.2254 76.5477 86.8615C76.3741 85.3462 75.4021 83.0985 74.4123 83.0985ZM76.0213 92.0769C75.7541 92.0769 75.4699 92.0381 75.176 91.9614C73.5476 91.536 71.6665 87.4904 71.5026 84.8924C71.3501 82.4567 72.5675 81.5977 73.3062 81.3014C73.6736 81.1545 74.0457 81.0802 74.4123 81.0802C77.0611 81.0802 78.3456 84.8206 78.5523 86.6314C78.8122 88.9081 78.5628 90.4364 77.7869 91.3059C77.3364 91.8105 76.7261 92.0769 76.0213 92.0769Z" fill="#332D2B"/>
<path d="M122.408 75.2164C120.901 79.0367 118.004 81.4732 115.935 80.657C113.869 79.8416 113.412 76.0843 114.92 72.264C116.425 68.4429 119.323 66.0072 121.39 66.8226C123.459 67.638 123.914 71.3961 122.408 75.2164Z" fill="#332D2B"/>
<path d="M120.545 67.473C119.153 67.473 116.973 69.2556 115.67 72.56C114.99 74.2853 114.712 76.0364 114.888 77.4904C115.042 78.7499 115.531 79.6299 116.232 79.9068C116.402 79.9738 116.587 80.0077 116.782 80.0077C118.173 80.0077 120.354 78.2243 121.657 74.9207C122.337 73.1954 122.615 71.4435 122.439 69.9903C122.285 68.7309 121.796 67.8509 121.095 67.574C120.925 67.5069 120.74 67.473 120.545 67.473ZM116.782 81.6224C116.384 81.6224 115.999 81.5505 115.64 81.4084C114.351 80.9006 113.515 79.5782 113.286 77.685C113.078 75.9678 113.392 73.9382 114.168 71.9675C115.586 68.3708 118.208 65.8584 120.545 65.8584C120.943 65.8584 121.328 65.9294 121.687 66.0715C122.975 66.5793 123.812 67.9025 124.041 69.7949C124.249 71.5121 123.935 73.5426 123.159 75.5125C121.74 79.1099 119.118 81.6224 116.782 81.6224Z" fill="#332D2B"/>
<path d="M114.158 75.0386C113.737 77.7601 114.378 80.0433 115.935 80.6568C117.274 81.1848 118.958 80.3452 120.39 78.6546C119.382 75.0515 115.566 74.4856 114.158 75.0386Z" fill="#BC5845"/>
<path d="M114.704 75.5129C114.432 77.8194 114.998 79.6367 116.158 80.0945C116.351 80.1704 116.559 80.2083 116.778 80.2091C117.668 80.2091 118.724 79.5939 119.71 78.5113C118.874 76.1127 116.58 75.462 115.312 75.462C115.091 75.462 114.884 75.479 114.704 75.5129ZM116.778 81.4201C116.407 81.4193 116.048 81.3531 115.714 81.2207C113.924 80.5151 113.079 78.0527 113.559 74.9453L113.613 74.6022L113.937 74.4746C114.311 74.3285 114.786 74.251 115.312 74.251C117.539 74.251 120.154 75.5621 120.973 78.4919L121.059 78.802L120.852 79.0466C119.556 80.5765 118.109 81.4201 116.778 81.4201Z" fill="#332D2B"/>
<path d="M120.919 68.0182C119.856 67.5984 117.512 69.1905 116.115 72.7355C114.717 76.2797 115.344 79.0424 116.407 79.4614C117.471 79.8812 119.815 78.2899 121.211 74.7449C122.61 71.1999 121.983 68.438 120.919 68.0182ZM115.305 82.2588C112.348 81.093 111.561 76.5509 113.476 71.6948C115.391 66.8387 119.065 64.0558 122.022 65.2216C124.979 66.3874 125.765 70.9287 123.85 75.7856C121.935 80.6417 118.261 83.4246 115.305 82.2588Z" fill="#FFF8A7"/>
<path d="M120.546 68.6793C119.831 68.6793 117.995 69.9476 116.791 73.0017C116.202 74.4937 115.943 75.984 116.06 77.2007C116.163 78.2567 116.518 78.7241 116.673 78.7863C116.688 78.7911 116.721 78.8008 116.78 78.8008C117.495 78.8016 119.331 77.5333 120.535 74.4783C121.124 72.9864 121.383 71.4952 121.266 70.2794C121.164 69.2234 120.808 68.756 120.653 68.6946C120.638 68.6881 120.605 68.6793 120.546 68.6793ZM116.78 80.254C116.551 80.254 116.337 80.2152 116.14 80.1377C115.311 79.8108 114.755 78.7911 114.614 77.3403C114.475 75.9001 114.768 74.1699 115.439 72.4689C117.001 68.5065 119.695 66.7538 121.186 67.3423C122.014 67.6693 122.572 68.689 122.712 70.1397C122.851 71.58 122.559 73.3101 121.888 75.0112C120.531 78.4528 118.291 80.254 116.78 80.254ZM120.622 65.6841C118.233 65.6841 115.633 68.207 114.153 71.9611C112.419 76.3594 113.042 80.5858 115.571 81.5821C115.93 81.725 116.312 81.7968 116.705 81.7968C119.094 81.7968 121.694 79.2739 123.174 75.519C124.052 73.2924 124.362 71.0633 124.047 69.2428C123.755 67.553 122.94 66.3646 121.755 65.898C121.396 65.7551 121.014 65.6841 120.622 65.6841ZM116.705 83.25C116.129 83.25 115.568 83.1434 115.038 82.9343C111.696 81.6168 110.734 76.6702 112.8 71.4282C114.525 67.0557 117.594 64.2309 120.622 64.2309C121.197 64.2309 121.758 64.3366 122.288 64.5457C123.963 65.2061 125.097 66.7861 125.479 68.9957C125.839 71.0746 125.501 73.5806 124.526 76.0518C122.802 80.4243 119.731 83.25 116.705 83.25Z" fill="#332D2B"/>
<path d="M53.7709 35.8467C53.5077 35.8467 53.2663 35.6748 53.1888 35.4091C52.8279 34.1634 53.5489 32.8539 54.7962 32.4931C55.4001 32.3179 56.0363 32.3889 56.5869 32.6917C57.1375 32.9952 57.5379 33.495 57.7131 34.0996C57.806 34.4202 57.6211 34.756 57.2998 34.8497C56.9776 34.9441 56.6426 34.7568 56.5489 34.4363C56.3745 33.8308 55.7376 33.482 55.1329 33.6564C54.839 33.7412 54.596 33.9358 54.4491 34.203C54.3013 34.4702 54.2674 34.7794 54.353 35.0733C54.4458 35.3938 54.2601 35.7297 53.9396 35.8233C53.8831 35.8395 53.8258 35.8467 53.7709 35.8467Z" fill="#332D2B"/>
<path d="M107.48 32.7628L110.906 33.202L110.461 36.6437L107.036 36.2037L107.48 32.7628Z" fill="#00A59D"/>
<path d="M66.0244 7.68895L69.0059 8.54714L68.1372 11.5456L65.1557 10.6874L66.0244 7.68895Z" fill="#EF8C9A"/>
<path d="M47.7624 -2.6226e-06L50.7439 0.858193L49.876 3.85663L46.8937 2.99843L47.7624 -2.6226e-06Z" fill="#00A3E9"/>
<path d="M133.175 35.3689L136.157 36.2271L135.288 39.2255L132.306 38.3673L133.175 35.3689Z" fill="#EF8C9A"/>
<path d="M118.777 16.2945L121.855 15.9102L122.236 19.0096L119.158 19.3931L118.777 16.2945Z" fill="#00A3E9"/>
<path d="M91.9756 22.3495L94.5373 20.5992L96.2924 23.181L93.7307 24.9313L91.9756 22.3495Z" fill="#00A3E9"/>
<path d="M142.637 58.9665L144.033 56.1965L146.817 57.6093L145.419 60.3793L142.637 58.9665Z" fill="#00A59D"/>
<path d="M87.9807 45.0352L90.5432 43.2849L92.2975 45.8668L89.7359 47.6171L87.9807 45.0352Z" fill="#EF8C9A"/>
<path d="M83.9259 4.14153L86.4876 2.39123L88.2419 4.97308L85.6802 6.72338L83.9259 4.14153Z" fill="#F8B83A"/>
<path d="M121.555 45.4961L124.524 44.5927L125.425 47.5814L122.457 48.4848L121.555 45.4961Z" fill="#F8B83A"/>
<path d="M29.3584 11.9879L30.6574 9.17026L33.4887 10.4846L32.1905 13.3022L29.3584 11.9879Z" fill="#F8B83A"/>
<path d="M15.8782 23.2404L18.938 22.718L19.4588 25.7964L16.399 26.3187L15.8782 23.2404Z" fill="#00A59D"/>
<path d="M31.8237 53.923C35.3235 51.9079 39.1269 52.5998 41.1436 54.0821C45.1827 51.6633 52.8717 43.9605 47.2438 42.0786C44.4197 41.1341 42.6686 42.4783 41.1872 44.495C39.7049 46.5117 33.8429 53.1173 31.8237 53.923Z" fill="#332D2B"/>
<path d="M36.4526 51.8648C38.1722 51.8648 39.8547 52.3177 41.1594 53.1202C44.3419 51.0534 48.6692 46.5663 48.4149 44.2331C48.3713 43.827 48.1759 43.2417 46.9883 42.8437C44.9248 42.1534 43.4966 42.7145 41.8375 44.9726C40.8501 46.3152 38.0745 49.5268 35.6388 51.8979C35.9085 51.8753 36.1797 51.8648 36.4526 51.8648ZM41.144 54.8891C40.9761 54.8891 40.8082 54.8358 40.6661 54.7316C39.5818 53.9356 38.0463 53.4795 36.4526 53.4795C35.1657 53.4795 33.9192 53.7701 32.7477 54.3441C32.5177 54.4886 32.3126 54.5968 32.1229 54.6727C31.7289 54.8293 31.2816 54.6557 31.0967 54.2747C30.9127 53.8936 31.054 53.4343 31.4213 53.2235C31.5973 53.1218 31.7749 53.0257 31.9525 52.9369C34.1573 51.5047 39.162 45.8865 40.5361 44.0167C41.5816 42.595 43.0897 40.9634 45.4972 40.9634C46.1317 40.9634 46.805 41.0804 47.5002 41.313C49.4055 41.9499 49.923 43.1577 50.0206 44.0587C50.4049 47.59 44.8029 52.832 41.5582 54.7744C41.4306 54.8511 41.2869 54.8891 41.144 54.8891Z" fill="#332D2B"/>
<path d="M49.1254 44.8051L48.5893 42.3492C44.0134 43.2865 41.4517 48.7335 44.0723 52.1671C47.011 49.5804 50.1766 46.9316 49.1254 44.8051Z" fill="#EB5B25"/>
<path d="M48.2827 42.8368C46.2555 43.3882 44.5625 44.9318 43.8077 46.9469C43.1925 48.589 43.32 50.2473 44.1459 51.5656L44.1734 51.5414C46.8578 49.1832 49.6342 46.7451 48.7631 44.9843C48.7485 44.9544 48.7372 44.9229 48.7308 44.8906L48.2827 42.8368ZM44.0725 52.5708C44.0595 52.5708 44.0458 52.57 44.0321 52.5683C43.9215 52.5579 43.8198 52.5013 43.7519 52.4117C42.5353 50.8189 42.2802 48.7238 43.052 46.6635C43.9506 44.2633 46.0415 42.4589 48.508 41.9535C48.7251 41.9099 48.9366 42.0464 48.9835 42.2635L49.5099 44.6726C50.5909 46.9776 47.5997 49.6054 44.7054 52.1477L44.3389 52.4707C44.2646 52.5352 44.1701 52.5708 44.0725 52.5708Z" fill="#332D2B"/>
<path d="M28.6213 62.495C27.7356 62.4942 26.9436 61.8701 26.7644 60.9675C26.5593 59.9398 27.227 58.9411 28.2547 58.7361C36.9562 57.0043 41.6977 52.983 44.7938 49.7763C47.3328 47.1444 47.5702 45.5031 47.5541 44.9202C47.5427 44.502 47.4087 44.1968 47.1221 43.9304C46.5949 43.4395 45.9983 43.2231 45.35 43.2708C44.1471 43.3701 42.8312 44.5286 41.3013 46.249C32.6975 55.9257 24.8123 56.8994 20.7231 55.9354C19.7027 55.6956 19.0705 54.6736 19.3111 53.6539C19.5517 52.6334 20.5754 52.0029 21.5926 52.2419C25.7835 53.2317 31.4001 51.5758 38.2988 43.9279C40.6304 41.3437 42.6963 39.6814 45.0408 39.4892C46.7475 39.3544 48.405 39.9397 49.7064 41.1515C50.7406 42.1131 51.3082 43.3806 51.3461 44.8176C51.4099 47.1274 50.0883 49.7529 47.5242 52.4098C44.0526 56.0081 38.6605 60.534 28.9959 62.4587C28.8699 62.4829 28.7448 62.495 28.6213 62.495Z" fill="#FED300"/>
<path d="M45.5233 42.0534C46.4138 42.0534 47.2518 42.3957 47.9477 43.0448C48.4684 43.5292 48.7437 44.1492 48.7647 44.8871C48.7889 45.8027 48.4192 47.7613 45.6654 50.616C42.3892 54.0108 37.4774 58.1355 28.491 59.9237C28.1196 59.998 27.8782 60.3597 27.9517 60.7311C28.0154 61.0516 28.2972 61.2841 28.6217 61.2841L28.6266 62.4951V61.2841C28.6702 61.2841 28.7138 61.28 28.7574 61.2704C38.12 59.407 43.2393 55.1072 46.6527 51.5694C48.9859 49.1515 50.1897 46.8288 50.1364 44.8508C50.1065 43.7464 49.673 42.7744 48.8818 42.0389C47.8298 41.0596 46.5187 40.5857 45.1366 40.6971C43.3798 40.8408 41.6586 42.0114 39.1986 44.7394C33.8282 50.6935 28.6597 53.7121 23.8391 53.7121C22.9825 53.7121 22.1324 53.6144 21.3146 53.4207C20.9529 53.3367 20.5742 53.5741 20.4895 53.9309C20.4031 54.2998 20.6324 54.6704 21.0013 54.7576C21.7344 54.9304 22.5425 55.0176 23.4007 55.0176C26.5687 55.0176 32.991 53.7743 40.3959 45.4442C41.8814 43.7738 43.4977 42.2084 45.2504 42.0647C45.3497 42.0566 45.4377 42.0534 45.5233 42.0534ZM28.6266 63.7061H28.6177C27.1443 63.7045 25.8639 62.6525 25.5773 61.2034C25.2422 59.5241 26.337 57.8836 28.0179 57.5486C36.3463 55.8911 40.8924 52.0748 43.9231 48.9351C46.3137 46.4566 46.3476 45.0995 46.3443 44.9525C46.3419 44.8799 46.3314 44.8532 46.3314 44.8524C45.9689 44.5109 45.6985 44.4754 45.5233 44.4754L45.4385 44.4778C44.4213 44.5618 42.7541 46.438 42.2067 47.054C34.1714 56.0905 26.9748 57.4396 23.4007 57.4396C22.356 57.4396 21.3614 57.3306 20.4459 57.115C18.7763 56.7202 17.7397 55.0434 18.1321 53.3754C18.4647 51.9658 19.7088 50.9809 21.1571 50.9809C21.3961 50.9809 21.6359 51.0092 21.87 51.0641C26.4177 52.1378 31.7114 49.4244 37.3999 43.1175C39.5337 40.752 41.9234 38.5294 44.942 38.2832C47.0265 38.1152 48.9988 38.8386 50.532 40.266C51.8084 41.4528 52.5091 43.0149 52.5576 44.7846C52.6294 47.427 51.1908 50.3552 48.3966 53.2511C45.0219 56.7469 39.3649 61.6288 29.2321 63.6455C29.0335 63.6851 28.8292 63.7061 28.6266 63.7061Z" fill="#332D2B"/>
</svg>
