<svg width="74" height="77" viewBox="0 0 74 77" fill="none" xmlns="http://www.w3.org/2000/svg">
<path d="M73 63.4506C73 63.4506 72.4589 60.1248 72.3325 59.6481C72.2069 59.1714 71.7279 57.8536 71.7279 57.8536C71.7279 57.8536 71.0037 57.8348 70.7524 57.8476C70.5012 57.8604 70.3241 57.5715 70.3241 57.5715L70.3998 56.48L70.6404 52.6595H70.3196V52.3396H70.1591V52.8194H69.9987L69.8383 52.9793H69.6779V52.8194H69.5174V52.9793H69.0361L68.8757 52.8194H68.7153V52.1797H68.5548V52.0198H68.3944V51.7H68.234V51.5401H67.9131V51.7H67.1109V51.5401H66.9505L67.1109 51.3802V51.2202H67.2714V51.0603H67.4318V50.7405V50.5806H67.2714V50.4207H67.1109V50.2608H66.9505L66.7901 49.9409L66.6296 49.781H66.4692L66.3088 49.6211H66.1483V49.4612H65.9879V49.2998H65.8275V49.1399H65.6671V48.98H65.5066V48.82H65.3462V48.5002L65.5066 48.3403V48.1804V48.0205H65.8275V47.8606V47.7007H65.6671V47.2209H65.5066V46.9011H65.3462V46.7412L65.1857 46.5813V46.2614H65.3462L65.5066 46.1015H65.8275H66.3088L66.4692 45.9416L66.6296 45.7817V45.6218H66.7901V45.4619L66.9505 45.142H67.1109V44.6623L66.9505 44.5024V44.3425L66.6296 44.1826L66.3088 43.8627L66.1483 43.7028L65.8275 43.383L65.6671 43.2231L65.9879 43.0632V42.9033L66.1483 42.7434L66.3088 42.5834V42.4235L66.4692 42.2636V41.7839L66.7901 41.4641V41.3041L67.1109 40.9843L67.2714 40.8244L67.4318 40.6645H67.5922L68.234 40.3447H68.3944V40.1847H68.5548V40.0248H68.8757L68.7153 39.705V39.5451L68.5548 39.2253V39.0653L68.234 38.7455L67.7527 38.4257L67.5922 38.2658L67.4318 37.786V37.4662L67.1109 37.1464L67.2714 36.8266L67.1109 36.6667V36.3468L67.4318 35.7072V35.3874L67.5922 35.2274L67.2714 34.7477L67.1109 34.4279L66.9505 34.268L66.7901 33.7882L66.9505 33.4684L67.1109 33.1486V32.8287L66.6296 32.6688L66.3088 32.5089L66.1483 32.349L65.8275 32.1891V32.0292L65.6671 31.8693L65.5066 31.7093L65.3462 31.5494H65.1857L64.7045 30.9098L64.544 30.7499L64.0627 30.43L63.9023 30.1102L63.421 29.9503L63.2606 29.4706L63.1001 29.3107V29.1507H63.2606V28.9908L63.1001 28.8309H62.9397L62.4584 28.3512L62.298 28.1913L61.9771 27.8714V27.0719L61.6562 26.912V26.4322L61.4958 25.9525V25.1529L61.6562 24.8331V24.6732L61.8167 24.0335L61.9771 23.8736L62.1375 23.5538L62.4584 23.234L62.6188 22.9141L62.298 21.9546V21.1551L62.1375 20.9952V20.6753L61.9771 20.5154H62.298L62.4584 20.3555L62.6188 19.8758L62.7793 19.396L62.6188 19.0762V18.7504L62.7793 18.5904V18.4305L62.6188 18.2706L62.7793 18.1107L62.6188 17.9508V17.1512L62.4584 16.9913V16.8314H62.298L61.9771 16.6715H61.8167L61.6562 16.5116L61.4958 16.3517V16.0318L61.3354 15.8719L61.1749 15.712L60.8541 15.5521H60.5332V15.3922L60.6936 15.2323V15.0724L60.5332 14.7525L60.3728 14.5926L60.5332 14.4327H60.3728V14.2728H60.2124V14.1129L60.0519 14.2728L59.8915 14.4327L59.731 14.2728H59.4102V14.4327H58.1267V14.2728H57.9663V14.4327H57.485L57.3246 14.2728L57.1641 14.1129L56.8433 13.953L56.6828 13.793L56.5224 13.6331V13.4732H56.6828V12.5137L56.5224 12.3538L56.362 12.1939V12.034H56.2015V11.8741H56.0411V11.7142H55.8807L55.7202 11.5543V11.3943L55.5598 11.2344V10.9146H55.3994V10.5948L55.2389 10.4349V10.275H54.7577V10.115L54.5972 9.95513V9.63531H54.4368V9.31548H54.2764V9.15557H54.1159V8.83574H53.9555V8.67583L53.7951 8.51592H53.4742V8.356H53.1533V8.19609H52.8325V8.03618H52.5116V7.87627H52.3512V8.03618H52.1907V7.87627H52.0303V7.71635H51.8699V7.39653H51.7095V7.23661L51.549 7.0767L51.3886 6.91679V6.75687H51.2281L51.0677 6.59696H50.426L50.2655 6.43705L49.7843 6.27713L49.303 6.11722L48.9821 5.9573V5.79739L48.5008 5.63748L48.3404 5.47757L47.8591 5.31765V5.15774L47.3778 4.83792L46.8965 4.35818L46.4152 3.87844L45.7734 3.23878L45.613 2.91896H45.4526V2.75904L44.9713 2.59913L44.3296 2.11939L43.8483 1.63965L43.5274 1.47974H43.2065L42.7252 1.15992L42.2439 1H40.8L40.6396 1.15992V1.31983H40.4792V1.63965L40.6396 1.79957V1.95948H40.8L40.9605 2.11939V2.75904L40.8 2.91896H40.9605V4.03835H41.1209V4.19827H41.2813V4.51809H41.4418V4.83792L41.6022 4.99783V6.43705H41.4418V7.0767H41.6022V7.23661L41.7626 7.39653L41.9231 7.55644H41.7626L41.9231 7.71635L41.7626 7.87627V8.03618L41.6022 8.19609L41.7626 8.356V9.95513H41.4418V10.115H41.1209V10.275H40.6396V10.5948L40.4792 10.7547H40.3188V10.9146H40.1583V11.0745L39.9979 11.3943H39.8375V12.034L39.9979 12.1939L39.8375 12.3538V12.5137H39.677V12.6737H39.5166V12.8336L39.1957 13.1534V13.3133L39.0353 13.4732L38.8749 13.6331L38.7144 13.793H38.554L38.2331 13.953H37.7518L37.5914 14.1129H37.2705V14.2728L37.431 14.4327V15.0724L37.2705 15.2323L37.1101 15.5521L36.9497 15.712L36.7893 15.8719V16.9913L36.6288 17.1512L36.4684 17.3111V17.7909L36.3079 17.9508H36.1475V18.1107L35.9871 18.2706V18.5904H35.8267V18.9103L35.6662 19.0702V19.39H35.5058L35.3453 19.5499H35.0245V19.7098H34.8641V19.8697H34.5432V20.0297H34.3827V19.8697H33.9015V20.0297H33.0993V20.1896H32.7784V20.3495H32.2971V20.1896H31.9763V20.0297H31.8158V20.1896H31.6554V20.0297H31.1741V19.8697H30.8532V20.0297H30.5324V19.8697H30.2115V20.0297H30.0511V20.1896H29.8907V20.3495H29.5698V20.6693H29.4094V20.8292H29.2489V20.9891H28.9281V21.309H28.7676V21.9486H28.6072V22.4284H28.7676V22.9081H28.9281V23.2279H29.0885V23.7077H28.9281V23.8676L28.7676 24.0275V24.1874H28.6072V24.3473H28.4468V24.5072H28.2863V24.6671H28.1259V24.8271H27.9647V25.1469H27.8043V25.4667H27.323V25.6266H27.0021V25.7865H26.6812V25.9464H26.3604L26.2 26.1064V25.9464H26.0395V25.7865H25.8791V25.4667H25.7187L25.5582 25.3068V25.1469H25.3978V24.987H24.9165V24.8271H24.7561V24.6671H24.5956V24.8271L24.4352 24.6671H23.633V24.5072H22.9913L22.3496 24.1874V23.7077L22.1892 23.5477V23.3878H22.0287L21.8683 23.2279H21.7079V23.068H21.5474V22.9081H21.387V22.7482H21.2266V22.5883H20.5848V22.7482H20.4244L20.264 22.9081H19.6222V22.7482H19.3014V22.1085H19.1409V21.6288H18.9805V21.4689H18.6597V21.6288H18.4992V21.7887H18.3388V22.1085H18.0179V22.2684L17.8575 22.4284H17.6971V22.5883H17.3762V22.7482H17.2157L17.0553 22.9081H16.8949V23.068H16.574V23.2279H16.4136L16.2532 23.3878H15.7719V23.2279H15.6114L15.451 23.068H15.6114V22.1085H15.7719V21.9486L15.9323 21.7887V21.6288L16.0927 21.4689L15.9323 21.309V20.6693L15.7719 20.5094V20.1896H15.6114V20.0297L15.451 19.8697H15.2906L15.1301 19.7098L14.9697 19.5499H14.8093V19.39L14.4884 19.2301V19.0702H14.328L14.1675 18.7504V18.5904H13.8467V18.4305L13.6862 18.2706H13.5258V17.9508H13.3654V17.7909L13.205 17.631L13.0445 17.7909V19.39H12.4028V19.2301H12.2424V18.4305L12.4028 18.2706V17.9508H12.0819V17.7909H11.9215V17.631H12.0819V17.471H12.2424L12.0819 17.3111L11.9215 17.1512L11.7611 16.9913H11.6006L11.4402 16.8314L11.2798 16.6715H11.1193L10.9589 16.5116H10.3172L10.1567 16.3517H9.99631L9.83588 16.1917H9.515L9.35457 16.0318L9.19415 16.1917H9.03372V16.0318H8.87328L8.71284 15.8719V15.712H8.55241V15.5521L8.39197 15.3922L8.23156 14.9124V14.5926L8.39197 14.4327V13.4732H8.23156L8.07112 13.3133V13.1534L7.75025 12.9935V12.8336H7.10853V12.9935H6.78765L6.62722 13.1534L6.4668 13.3133H6.14593L5.82506 13.1534L5.50421 12.9935H5.0229L4.86246 12.8336V12.9935H4.70205V13.3133H4.0603L3.89989 13.4732V13.793L3.73945 13.953L3.57902 14.1129V14.2728L3.41858 14.4327V14.5926L3.09773 14.7525V15.0724H3.25814V15.5521L3.41858 15.712L3.25814 15.8719L3.09773 16.0318V16.1917L3.25814 16.3517V16.8314H3.41858V16.9913L3.57902 17.1512V17.471L3.41858 17.631V17.7909L3.25814 17.9508H3.09773V18.2706L2.93729 18.4305V18.9103L3.09773 19.0702H2.93729V19.39L2.77686 19.5499L2.61642 19.7098V19.8697H2.29555V20.3495L2.13513 20.5094V20.8292L2.29555 20.9891V21.309H2.61642V21.4689H2.77686V21.7887L2.61642 21.9486V24.0282L2.77686 24.3481V24.508L2.61642 24.6679V25.4675L2.77686 25.6274V25.9472H2.61642L2.77686 26.1071L2.93729 26.267L3.25814 26.5868L3.41858 26.7468L3.57902 26.9067H3.73945L3.89989 27.0666L3.73945 27.2265V27.3864L3.57902 27.5463L3.41858 27.7062V28.186H3.25814V28.5058L2.93729 28.6657L2.77686 28.8256H2.61642V29.3054L2.77686 29.4653L2.93729 29.6252H2.76476V29.7851H2.60432V29.945L2.44388 30.1049V30.7446L2.60432 30.9045V31.0644L2.44388 31.2243V31.864L2.60432 32.0239L2.44388 32.1838V33.3032V33.4631V33.623H2.60432V33.9428L2.76476 34.2627L2.92517 34.4226V35.8618L2.76476 36.1816V36.3415L2.92517 36.5015V36.6614H3.0856L2.92517 36.8213V37.4609L3.0856 37.7808V38.1006H2.76476L2.60432 38.2605L2.44388 38.4204H2.28345L1.80216 38.9002L1.48129 39.22V40.3394L1.32085 40.4993H1.16041L1 41.1389L1.16041 41.2988V41.4588L1.32085 41.7786V42.0984L1.16041 42.4182H1V43.2178L1.16041 43.3777L1.48129 43.5376L1.64172 43.6976V44.0174L1.48129 44.4971V44.657L1.32085 44.8169L1.16041 44.9769L1 45.2967L1.16041 45.4566L1.32085 45.6165L1.48129 45.7764V45.9363H1.64172L1.80216 46.2562L1.9626 46.576L2.28345 46.7359V46.8958H2.44388V47.0557L2.60432 47.2156H2.92517L3.0856 47.0557H3.24604V46.8958H3.40648L3.56691 46.7359V45.6165L3.40648 45.4566V45.2967L3.24604 45.1368L3.0856 44.9769L3.24604 44.8169V44.4971H3.40648V44.3372L3.56691 44.1773H3.72733V44.0174L3.88776 43.8575L4.0482 43.6976V43.3777H4.20864L4.36907 43.2178H4.52951V43.0579H5.0108V42.898H5.33167V43.0579H5.49208V43.5376H5.65252V44.1773H5.81296V44.4971H5.97339V45.2967L6.13383 45.4566V45.7764H6.29427V45.9363H6.45468V46.0962H6.77555V46.4161H6.61512V46.576L6.45468 46.7359V46.8958H6.29427V47.0557H6.13383V47.3755H5.97339V47.6954H6.13383V47.8553H6.29427L6.45468 48.0152H6.61512V48.335L6.77555 48.4949V48.6549L6.93599 48.8148V48.9747L7.09642 49.1346V49.2945L7.25684 49.4544H7.89858L8.21943 49.6143H8.54031V49.7742H8.70074L8.86118 49.9342V50.0941L9.02159 50.4139V50.7337L9.18203 50.8936V51.0536L9.34247 51.2135V51.6932L9.5029 51.8531V52.013L9.34247 52.1729V53.2923H9.5029V53.4522H9.66334L9.82378 53.6122H9.98419V53.7721H10.6259V53.932H10.7863L10.9468 54.0919V54.2518L11.1072 54.4117L11.2677 54.5716V54.7316H11.4281V55.3712H11.5885V55.5311L11.7489 55.691V56.0109H11.5885V56.3307H11.7489V56.4906L11.9094 56.6505L12.0698 56.9703L12.2303 57.1302H12.0698V57.2902H11.7489V57.4501L11.5885 57.2902H11.2677V57.4501H11.1072L10.9468 57.61V58.0897L10.7863 58.2496V58.8893H10.6259V59.2091H10.4655L10.6259 59.369L10.4655 59.5289V60.1686H10.3051V60.3285L10.1446 60.4884V60.8083L10.3051 60.9682V61.288H10.1446L9.98419 61.4479L9.82378 61.6078V61.9276H9.98419V62.4074L10.1446 62.5673H10.7863V62.7272H11.1072L11.4281 62.8871H11.7489V63.2069H11.9094L12.0698 63.3669V63.6867H12.2303V63.8466H12.3907V64.0065H12.5511V64.1664L12.7115 64.3263H12.872L13.0324 64.4862H13.1928L13.3533 64.6462L13.5137 64.4862V64.3263H13.6741L13.995 64.4862H14.3159V64.8061H14.4763L14.6367 64.6462H14.9576L15.2785 64.4862H15.4389V64.0065H15.5993V63.5268H15.7598L15.9202 63.3669L16.0806 63.2069H16.2411L16.4015 63.6867H17.0432L17.2036 63.5268H18.3267V63.3669H18.4871V63.2069L18.6475 63.047H18.9684L19.1288 62.8871L19.2893 62.7272V62.5673L19.4497 62.2475L19.6101 62.0876L19.7706 61.9276H20.2519V61.7677L20.4123 61.6078H20.5727L20.7332 61.4479H20.8936L21.054 61.288H22.0166L22.3375 61.1281H22.6583V61.288L22.8188 61.4479H23.1396L23.3001 61.288V61.4479H23.4605V61.6078L23.6209 61.7677H23.7814V62.0876H23.9418V62.2475H24.2627V62.4074V62.5673L24.4231 62.7272H24.5835L24.744 62.8871L25.0648 63.2069H25.2253V63.3669H25.3857L25.5461 63.5268L25.867 63.6867L26.1879 63.8466L26.3483 64.0065H26.5087L26.6691 64.1664V64.4862H26.8296V64.966H27.1505L27.3109 64.8061H27.4713V64.6462L27.3109 64.4862H27.4713L27.6317 64.3263H27.7922V64.1664L27.9526 64.0065H28.4339V63.8466H28.5943V63.6867H28.7548L28.9152 63.8466V65.2858L29.0756 65.4457V65.6056L29.2361 65.7656H29.3965V66.2453H29.5569V66.725H29.3965V67.5246L29.5569 67.6845V67.8444L29.8778 68.0043L30.0382 68.1643L30.1987 68.3242L30.3591 68.4841H31.0008V68.644H31.3217V68.8039H31.6425L31.803 68.9638H32.926V68.8039H33.0864V68.644H33.2469L33.4073 68.4841V68.3242L33.5677 68.1643H34.2095V69.4436H34.5303V69.6035H34.6908V69.7634H34.8512V69.9233H35.172V70.2431L35.4929 70.5629L35.6534 70.7229H35.8138L36.2951 71.2026V71.5224L36.1346 71.6823V71.8422H35.9742V72.0022L36.2951 72.322L36.4555 72.4819L36.2951 72.8017V73.1216L36.4555 73.2815V73.4414H36.616L36.7764 73.6013H36.9368L37.0972 73.7612H38.0598V73.9211H38.5411V74.081H38.7016V73.9211H39.0224L39.1829 73.7612L39.3433 73.6013H39.5037L39.8246 73.4414H40.6267L40.7872 73.6013H40.9476L41.1081 73.7612L41.4289 73.9211V74.081H41.5893V74.241H41.7498V74.4009H42.0707L42.2311 74.5608L42.3915 74.7207L42.7124 75.2004H42.8728V75.6802H43.3541V76L43.675 75.8401H43.8354L43.9958 75.6802V75.5203L44.1563 75.3603H44.4771V75.0405L45.2793 74.8806V75.0405H45.6001V74.8806L45.7606 74.5608V74.241H45.921V74.081H46.0814V74.241H46.7232V74.4009L46.8836 74.5608V74.7207H48.3275V74.8806H48.4879V74.5608L48.6484 74.4009V74.081H48.8088L48.9692 73.9211H49.611L49.7714 73.7612H50.4131V73.9211H50.5736V73.7612H50.734L50.8944 73.6013H51.0548V73.4414L51.2153 73.2815L51.3757 72.9616H51.5361L51.6966 73.1216L52.4987 72.9616L52.8196 73.1216V73.2815H53.3009V73.4414H53.6218L53.7822 73.6013H54.4239V73.7612H54.5844V73.9211H54.9052V73.6013L55.0657 73.4414H55.2261V73.2815H55.5469V73.1216L55.7074 72.9616V72.8017L55.8678 72.6418H56.1887L56.0283 72.4819L55.8678 72.322H56.0283V72.1621H55.8678L56.0283 72.0022V71.8422H55.8678V71.6823H56.0283V71.3625H55.8678V71.0427H55.7074V70.8828H55.5469V70.7229L55.7074 70.5629H55.5469V70.403L55.3865 70.2431H55.2261L55.0657 70.0832L55.5469 70.2431H56.1887L56.3491 70.0832V69.6035H56.1887L56.3491 69.1237L56.1887 68.9638H56.3491V68.3242H56.1887L55.8678 68.1643H55.7074V68.3242H55.5469V68.1643H55.3865V68.0043H55.2261V67.8444H55.5469V66.8849L55.3865 66.725H55.5469L55.7074 66.5651V66.4052H55.8678L56.1887 66.5651V66.725H56.8304V66.2453H57.4721L57.6326 66.725H58.2743V66.4052H58.916L59.7182 66.0854V65.9255H59.8786L59.7182 65.7656L59.5577 65.4457H59.3973V65.2858H59.7182H60.0391V65.4457H60.3599V65.7656L60.1995 66.0854L60.3599 66.4052V66.5651L60.0391 67.0449L60.1995 67.3647L60.3599 67.5246H60.1995L60.0391 67.3647L59.8786 67.6845L60.0391 68.1643L60.1995 68.3242L60.0391 68.4841L60.1995 68.9638H60.6808L60.5203 69.1237V69.2836L60.8412 69.6035H60.6808V69.9233L60.8412 70.0832H61.0017L61.1621 69.9233V70.403L61.3225 70.7229V71.5224L61.1621 71.6823V71.8422L61.3225 72.0022L61.4829 72.1621V72.322L61.6434 72.4819V72.8017H61.8038V72.9616L61.9642 73.1216L62.1247 73.2815H62.2851L62.4455 73.4414H62.606L62.9268 73.6013H64.3707V73.2815H64.6916V72.8017L64.852 72.1621V71.6823L65.0124 71.5224H65.3333L65.4938 71.3625L65.6542 71.2026L65.8146 71.0427V70.8828L65.975 70.7229L66.1355 70.5629V70.403H65.975V70.0832L65.8146 69.9233L65.975 69.7634V69.4436L66.1355 69.1237H65.975V68.9638L65.8146 68.8039L65.6542 68.644L65.4938 68.4841H65.3333V68.3242H64.6916L64.5312 68.1643V67.6845L64.3707 67.5246V67.3647L64.2103 67.2048L64.0499 67.0449V66.725L63.8894 66.5651L63.729 66.4052L63.5686 66.2453V66.0854L63.4081 65.9255V65.7656H63.5686V65.4457L63.729 65.2858V65.1259L63.8894 64.966H64.0499L64.2103 64.8061V64.6462L64.3707 64.4862H64.6916V64.3263H65.0124L65.1729 64.1664H65.3333V64.0065L65.4938 63.8466V63.6867H65.6542L65.8146 63.5268H65.975L66.1355 63.6867H66.2959L66.4564 63.8466V64.0065H66.7772L66.9376 64.1664L67.0981 64.0065H67.4189L67.7398 63.8466H67.8041L68.0766 63.9824C68.2529 64.1332 68.5049 64.2207 68.5049 64.2207C68.5049 64.2207 68.6184 64.3965 68.769 64.3716C68.9196 64.3467 69.4485 64.61 69.5749 64.4719C69.7005 64.3339 69.8769 64.3965 69.9276 64.3588C69.9783 64.3211 70.1168 64.3965 70.1917 64.4463C70.2674 64.4968 70.3302 64.4591 70.4437 64.3588C70.5572 64.2585 70.6579 64.1453 70.6828 64.1958C70.7078 64.2464 70.9091 64.2833 70.9598 64.3844C71.0105 64.4847 71.0604 64.447 71.149 64.3844C71.2375 64.3218 71.174 64.2841 71.2247 64.3595C71.2754 64.435 71.3125 64.3467 71.401 64.2343C71.4888 64.1212 71.6779 64.134 71.7287 64.0457C71.7794 63.9582 71.2017 64.3177 71.2017 64.3177L71.9171 63.9582L73 63.4506Z" fill="#580009"/>
<path d="M65.3454 48.0197V47.8598M73 63.4506C73 63.4506 72.4589 60.1248 72.3325 59.6481C72.2069 59.1714 71.7279 57.8536 71.7279 57.8536C71.7279 57.8536 71.0037 57.8348 70.7524 57.8476C70.5012 57.8604 70.3241 57.5715 70.3241 57.5715L70.3998 56.48L70.6404 52.6595H70.3196V52.3396H70.1591V52.8194H69.9987L69.8383 52.9793H69.6779V52.8194H69.5174V52.9793H69.0361L68.8757 52.8194H68.7153V52.1797H68.5548V52.0198H68.3944V51.7H68.234V51.5401H67.9131V51.7H67.1109V51.5401H66.9505L67.1109 51.3802V51.2202H67.2714V51.0603H67.4318V50.7405V50.5806H67.2714V50.4207H67.1109V50.2608H66.9505L66.7901 49.9409L66.6296 49.781H66.4692L66.3088 49.6211H66.1483V49.4612H65.9879V49.2998H65.8275V49.1399H65.6671V48.98H65.5066V48.82H65.3462V48.5002L65.5066 48.3403V48.1804V48.0205H65.8275V47.8606V47.7007H65.6671V47.2209H65.5066V46.9011H65.3462V46.7412L65.1857 46.5813V46.2614H65.3462L65.5066 46.1015H65.8275H66.3088L66.4692 45.9416L66.6296 45.7817V45.6218H66.7901V45.4619L66.9505 45.142H67.1109V44.6623L66.9505 44.5024V44.3425L66.6296 44.1826L66.3088 43.8627L66.1483 43.7028L65.8275 43.383L65.6671 43.2231L65.9879 43.0632V42.9033L66.1483 42.7434L66.3088 42.5834V42.4235L66.4692 42.2636V41.7839L66.7901 41.4641V41.3041L67.1109 40.9843L67.2714 40.8244L67.4318 40.6645H67.5922L68.234 40.3447H68.3944V40.1847H68.5548V40.0248H68.8757L68.7153 39.705V39.5451L68.5548 39.2253V39.0653L68.234 38.7455L67.7527 38.4257L67.5922 38.2658L67.4318 37.786V37.4662L67.1109 37.1464L67.2714 36.8266L67.1109 36.6667V36.3468L67.4318 35.7072V35.3874L67.5922 35.2274L67.2714 34.7477L67.1109 34.4279L66.9505 34.268L66.7901 33.7882L66.9505 33.4684L67.1109 33.1486V32.8287L66.6296 32.6688L66.3088 32.5089L66.1483 32.349L65.8275 32.1891V32.0292L65.6671 31.8693L65.5066 31.7093L65.3462 31.5494H65.1857L64.7045 30.9098L64.544 30.7499L64.0627 30.43L63.9023 30.1102L63.421 29.9503L63.2606 29.4706L63.1001 29.3107V29.1507H63.2606V28.9908L63.1001 28.8309H62.9397L62.4584 28.3512L62.298 28.1913L61.9771 27.8714V27.0719L61.6562 26.912V26.4322L61.4958 25.9525V25.1529L61.6562 24.8331V24.6732L61.8167 24.0335L61.9771 23.8736L62.1375 23.5538L62.4584 23.234L62.6188 22.9141L62.298 21.9546V21.1551L62.1375 20.9952V20.6753L61.9771 20.5154H62.298L62.4584 20.3555L62.6188 19.8758L62.7793 19.396L62.6188 19.0762V18.7504L62.7793 18.5904V18.4305L62.6188 18.2706L62.7793 18.1107L62.6188 17.9508V17.1512L62.4584 16.9913V16.8314H62.298L61.9771 16.6715H61.8167L61.6562 16.5116L61.4958 16.3517V16.0318L61.3354 15.8719L61.1749 15.712L60.8541 15.5521H60.5332V15.3922L60.6936 15.2323V15.0724L60.5332 14.7525L60.3728 14.5926L60.5332 14.4327H60.3728V14.2728H60.2124V14.1129L60.0519 14.2728L59.8915 14.4327L59.731 14.2728H59.4102V14.4327H58.1267V14.2728H57.9663V14.4327H57.485L57.3246 14.2728L57.1641 14.1129L56.8433 13.953L56.6828 13.793L56.5224 13.6331V13.4732H56.6828V12.5137L56.5224 12.3538L56.362 12.1939V12.034H56.2015V11.8741H56.0411V11.7142H55.8807L55.7202 11.5543V11.3943L55.5598 11.2344V10.9146H55.3994V10.5948L55.2389 10.4349V10.275H54.7577V10.115L54.5972 9.95513V9.63531H54.4368V9.31548H54.2764V9.15557H54.1159V8.83574H53.9555V8.67583L53.7951 8.51592H53.4742V8.356H53.1533V8.19609H52.8325V8.03618H52.5116V7.87627H52.3512V8.03618H52.1907V7.87627H52.0303V7.71635H51.8699V7.39653H51.7095V7.23661L51.549 7.0767L51.3886 6.91679V6.75687H51.2281L51.0677 6.59696H50.426L50.2655 6.43705L49.7843 6.27713L49.303 6.11722L48.9821 5.9573V5.79739L48.5008 5.63748L48.3404 5.47757L47.8591 5.31765V5.15774L47.3778 4.83792L46.8965 4.35818L46.4152 3.87844L45.7734 3.23878L45.613 2.91896H45.4526V2.75904L44.9713 2.59913L44.3296 2.11939L43.8483 1.63965L43.5274 1.47974H43.2065L42.7252 1.15992L42.2439 1H40.8L40.6396 1.15992V1.31983H40.4792V1.63965L40.6396 1.79957V1.95948H40.8L40.9605 2.11939V2.75904L40.8 2.91896H40.9605V4.03835H41.1209V4.19827H41.2813V4.51809H41.4418V4.83792L41.6022 4.99783V6.43705H41.4418V7.0767H41.6022V7.23661L41.7626 7.39653L41.9231 7.55644H41.7626L41.9231 7.71635L41.7626 7.87627V8.03618L41.6022 8.19609L41.7626 8.356V9.95513H41.4418V10.115H41.1209V10.275H40.6396V10.5948L40.4792 10.7547H40.3188V10.9146H40.1583V11.0745L39.9979 11.3943H39.8375V12.034L39.9979 12.1939L39.8375 12.3538V12.5137H39.677V12.6737H39.5166V12.8336L39.1957 13.1534V13.3133L39.0353 13.4732L38.8749 13.6331L38.7144 13.793H38.554L38.2331 13.953H37.7518L37.5914 14.1129H37.2705V14.2728L37.431 14.4327V15.0724L37.2705 15.2323L37.1101 15.5521L36.9497 15.712L36.7893 15.8719V16.9913L36.6288 17.1512L36.4684 17.3111V17.7909L36.3079 17.9508H36.1475V18.1107L35.9871 18.2706V18.5904H35.8267V18.9103L35.6662 19.0702V19.39H35.5058L35.3453 19.5499H35.0245V19.7098H34.8641V19.8697H34.5432V20.0297H34.3827V19.8697H33.9015V20.0297H33.0993V20.1896H32.7784V20.3495H32.2971V20.1896H31.9763V20.0297H31.8158V20.1896H31.6554V20.0297H31.1741V19.8697H30.8532V20.0297H30.5324V19.8697H30.2115V20.0297H30.0511V20.1896H29.8907V20.3495H29.5698V20.6693H29.4094V20.8292H29.2489V20.9891H28.9281V21.309H28.7676V21.9486H28.6072V22.4284H28.7676V22.9081H28.9281V23.2279H29.0885V23.7077H28.9281V23.8676L28.7676 24.0275V24.1874H28.6072V24.3473H28.4468V24.5072H28.2863V24.6671H28.1259V24.8271H27.9647V25.1469H27.8043V25.4667H27.323V25.6266H27.0021V25.7865H26.6812V25.9464H26.3604L26.2 26.1064V25.9464H26.0395V25.7865H25.8791V25.4667H25.7187L25.5582 25.3068V25.1469H25.3978V24.987H24.9165V24.8271H24.7561V24.6671H24.5956V24.8271L24.4352 24.6671H23.633V24.5072H22.9913L22.3496 24.1874V23.7077L22.1892 23.5477V23.3878H22.0287L21.8683 23.2279H21.7079V23.068H21.5474V22.9081H21.387V22.7482H21.2266V22.5883H20.5848V22.7482H20.4244L20.264 22.9081H19.6222V22.7482H19.3014V22.1085H19.1409V21.6288H18.9805V21.4689H18.6597V21.6288H18.4992V21.7887H18.3388V22.1085H18.0179V22.2684L17.8575 22.4284H17.6971V22.5883H17.3762V22.7482H17.2157L17.0553 22.9081H16.8949V23.068H16.574V23.2279H16.4136L16.2532 23.3878H15.7719V23.2279H15.6114L15.451 23.068H15.6114V22.1085H15.7719V21.9486L15.9323 21.7887V21.6288L16.0927 21.4689L15.9323 21.309V20.6693L15.7719 20.5094V20.1896H15.6114V20.0297L15.451 19.8697H15.2906L15.1301 19.7098L14.9697 19.5499H14.8093V19.39L14.4884 19.2301V19.0702H14.328L14.1675 18.7504V18.5904H13.8467V18.4305L13.6862 18.2706H13.5258V17.9508H13.3654V17.7909L13.205 17.631L13.0445 17.7909V19.39H12.4028V19.2301H12.2424V18.4305L12.4028 18.2706V17.9508H12.0819V17.7909H11.9215V17.631H12.0819V17.471H12.2424L12.0819 17.3111L11.9215 17.1512L11.7611 16.9913H11.6006L11.4402 16.8314L11.2798 16.6715H11.1193L10.9589 16.5116H10.3172L10.1567 16.3517H9.99631L9.83588 16.1917H9.515L9.35457 16.0318L9.19415 16.1917H9.03372V16.0318H8.87328L8.71284 15.8719V15.712H8.55241V15.5521L8.39197 15.3922L8.23156 14.9124V14.5926L8.39197 14.4327V13.4732H8.23156L8.07112 13.3133V13.1534L7.75025 12.9935V12.8336H7.10853V12.9935H6.78765L6.62722 13.1534L6.4668 13.3133H6.14593L5.82506 13.1534L5.50421 12.9935H5.0229L4.86246 12.8336V12.9935H4.70205V13.3133H4.0603L3.89989 13.4732V13.793L3.73945 13.953L3.57902 14.1129V14.2728L3.41858 14.4327V14.5926L3.09773 14.7525V15.0724H3.25814V15.5521L3.41858 15.712L3.25814 15.8719L3.09773 16.0318V16.1917L3.25814 16.3517V16.8314H3.41858V16.9913L3.57902 17.1512V17.471L3.41858 17.631V17.7909L3.25814 17.9508H3.09773V18.2706L2.93729 18.4305V18.9103L3.09773 19.0702H2.93729V19.39L2.77686 19.5499L2.61642 19.7098V19.8697H2.29555V20.3495L2.13513 20.5094V20.8292L2.29555 20.9891V21.309H2.61642V21.4689H2.77686V21.7887L2.61642 21.9486V24.0282L2.77686 24.3481V24.508L2.61642 24.6679V25.4675L2.77686 25.6274V25.9472H2.61642L2.77686 26.1071L2.93729 26.267L3.25814 26.5868L3.41858 26.7468L3.57902 26.9067H3.73945L3.89989 27.0666L3.73945 27.2265V27.3864L3.57902 27.5463L3.41858 27.7062V28.186H3.25814V28.5058L2.93729 28.6657L2.77686 28.8256H2.61642V29.3054L2.77686 29.4653L2.93729 29.6252H2.76476V29.7851H2.60432V29.945L2.44388 30.1049V30.7446L2.60432 30.9045V31.0644L2.44388 31.2243V31.864L2.60432 32.0239L2.44388 32.1838V33.3032V33.4631V33.623H2.60432V33.9428L2.76476 34.2627L2.92517 34.4226V35.8618L2.76476 36.1816V36.3415L2.92517 36.5015V36.6614H3.0856L2.92517 36.8213V37.4609L3.0856 37.7808V38.1006H2.76476L2.60432 38.2605L2.44388 38.4204H2.28345L1.80216 38.9002L1.48129 39.22V40.3394L1.32085 40.4993H1.16041L1 41.1389L1.16041 41.2988V41.4588L1.32085 41.7786V42.0984L1.16041 42.4182H1V43.2178L1.16041 43.3777L1.48129 43.5376L1.64172 43.6976V44.0174L1.48129 44.4971V44.657L1.32085 44.8169L1.16041 44.9769L1 45.2967L1.16041 45.4566L1.32085 45.6165L1.48129 45.7764V45.9363H1.64172L1.80216 46.2562L1.9626 46.576L2.28345 46.7359V46.8958H2.44388V47.0557L2.60432 47.2156H2.92517L3.0856 47.0557H3.24604V46.8958H3.40648L3.56691 46.7359V45.6165L3.40648 45.4566V45.2967L3.24604 45.1368L3.0856 44.9769L3.24604 44.8169V44.4971H3.40648V44.3372L3.56691 44.1773H3.72733V44.0174L3.88776 43.8575L4.0482 43.6976V43.3777H4.20864L4.36907 43.2178H4.52951V43.0579H5.0108V42.898H5.33167V43.0579H5.49208V43.5376H5.65252V44.1773H5.81296V44.4971H5.97339V45.2967L6.13383 45.4566V45.7764H6.29427V45.9363H6.45468V46.0962H6.77555V46.4161H6.61512V46.576L6.45468 46.7359V46.8958H6.29427V47.0557H6.13383V47.3755H5.97339V47.6954H6.13383V47.8553H6.29427L6.45468 48.0152H6.61512V48.335L6.77555 48.4949V48.6549L6.93599 48.8148V48.9747L7.09642 49.1346V49.2945L7.25684 49.4544H7.89858L8.21943 49.6143H8.54031V49.7742H8.70074L8.86118 49.9342V50.0941L9.02159 50.4139V50.7337L9.18203 50.8936V51.0536L9.34247 51.2135V51.6932L9.5029 51.8531V52.013L9.34247 52.1729V53.2923H9.5029V53.4522H9.66334L9.82378 53.6122H9.98419V53.7721H10.6259V53.932H10.7863L10.9468 54.0919V54.2518L11.1072 54.4117L11.2677 54.5716V54.7316H11.4281V55.3712H11.5885V55.5311L11.7489 55.691V56.0109H11.5885V56.3307H11.7489V56.4906L11.9094 56.6505L12.0698 56.9703L12.2303 57.1302H12.0698V57.2902H11.7489V57.4501L11.5885 57.2902H11.2677V57.4501H11.1072L10.9468 57.61V58.0897L10.7863 58.2496V58.8893H10.6259V59.2091H10.4655L10.6259 59.369L10.4655 59.5289V60.1686H10.3051V60.3285L10.1446 60.4884V60.8083L10.3051 60.9682V61.288H10.1446L9.98419 61.4479L9.82378 61.6078V61.9276H9.98419V62.4074L10.1446 62.5673H10.7863V62.7272H11.1072L11.4281 62.8871H11.7489V63.2069H11.9094L12.0698 63.3669V63.6867H12.2303V63.8466H12.3907V64.0065H12.5511V64.1664L12.7115 64.3263H12.872L13.0324 64.4862H13.1928L13.3533 64.6462L13.5137 64.4862V64.3263H13.6741L13.995 64.4862H14.3159V64.8061H14.4763L14.6367 64.6462H14.9576L15.2785 64.4862H15.4389V64.0065H15.5993V63.5268H15.7598L15.9202 63.3669L16.0806 63.2069H16.2411L16.4015 63.6867H17.0432L17.2036 63.5268H18.3267V63.3669H18.4871V63.2069L18.6475 63.047H18.9684L19.1288 62.8871L19.2893 62.7272V62.5673L19.4497 62.2475L19.6101 62.0876L19.7706 61.9276H20.2519V61.7677L20.4123 61.6078H20.5727L20.7332 61.4479H20.8936L21.054 61.288H22.0166L22.3375 61.1281H22.6583V61.288L22.8188 61.4479H23.1396L23.3001 61.288V61.4479H23.4605V61.6078L23.6209 61.7677H23.7814V62.0876H23.9418V62.2475H24.2627V62.4074V62.5673L24.4231 62.7272H24.5835L24.744 62.8871L25.0648 63.2069H25.2253V63.3669H25.3857L25.5461 63.5268L25.867 63.6867L26.1879 63.8466L26.3483 64.0065H26.5087L26.6691 64.1664V64.4862H26.8296V64.966H27.1505L27.3109 64.8061H27.4713V64.6462L27.3109 64.4862H27.4713L27.6317 64.3263H27.7922V64.1664L27.9526 64.0065H28.4339V63.8466H28.5943V63.6867H28.7548L28.9152 63.8466V65.2858L29.0756 65.4457V65.6056L29.2361 65.7656H29.3965V66.2453H29.5569V66.725H29.3965V67.5246L29.5569 67.6845V67.8444L29.8778 68.0043L30.0382 68.1643L30.1987 68.3242L30.3591 68.4841H31.0008V68.644H31.3217V68.8039H31.6425L31.803 68.9638H32.926V68.8039H33.0864V68.644H33.2469L33.4073 68.4841V68.3242L33.5677 68.1643H34.2095V69.4436H34.5303V69.6035H34.6908V69.7634H34.8512V69.9233H35.172V70.2431L35.4929 70.5629L35.6534 70.7229H35.8138L36.2951 71.2026V71.5224L36.1346 71.6823V71.8422H35.9742V72.0022L36.2951 72.322L36.4555 72.4819L36.2951 72.8017V73.1216L36.4555 73.2815V73.4414H36.616L36.7764 73.6013H36.9368L37.0972 73.7612H38.0598V73.9211H38.5411V74.081H38.7016V73.9211H39.0224L39.1829 73.7612L39.3433 73.6013H39.5037L39.8246 73.4414H40.6267L40.7872 73.6013H40.9476L41.1081 73.7612L41.4289 73.9211V74.081H41.5893V74.241H41.7498V74.4009H42.0707L42.2311 74.5608L42.3915 74.7207L42.7124 75.2004H42.8728V75.6802H43.3541V76L43.675 75.8401H43.8354L43.9958 75.6802V75.5203L44.1563 75.3603H44.4771V75.0405L45.2793 74.8806V75.0405H45.6001V74.8806L45.7606 74.5608V74.241H45.921V74.081H46.0814V74.241H46.7232V74.4009L46.8836 74.5608V74.7207H48.3275V74.8806H48.4879V74.5608L48.6484 74.4009V74.081H48.8088L48.9692 73.9211H49.611L49.7714 73.7612H50.4131V73.9211H50.5736V73.7612H50.734L50.8944 73.6013H51.0548V73.4414L51.2153 73.2815L51.3757 72.9616H51.5361L51.6966 73.1216L52.4987 72.9616L52.8196 73.1216V73.2815H53.3009V73.4414H53.6218L53.7822 73.6013H54.4239V73.7612H54.5844V73.9211H54.9052V73.6013L55.0657 73.4414H55.2261V73.2815H55.5469V73.1216L55.7074 72.9616V72.8017L55.8678 72.6418H56.1887L56.0283 72.4819L55.8678 72.322H56.0283V72.1621H55.8678L56.0283 72.0022V71.8422H55.8678V71.6823H56.0283V71.3625H55.8678V71.0427H55.7074V70.8828H55.5469V70.7229L55.7074 70.5629H55.5469V70.403L55.3865 70.2431H55.2261L55.0657 70.0832L55.5469 70.2431H56.1887L56.3491 70.0832V69.6035H56.1887L56.3491 69.1237L56.1887 68.9638H56.3491V68.3242H56.1887L55.8678 68.1643H55.7074V68.3242H55.5469V68.1643H55.3865V68.0043H55.2261V67.8444H55.5469V66.8849L55.3865 66.725H55.5469L55.7074 66.5651V66.4052H55.8678L56.1887 66.5651V66.725H56.8304V66.2453H57.4721L57.6326 66.725H58.2743V66.4052H58.916L59.7182 66.0854V65.9255H59.8786L59.7182 65.7656L59.5577 65.4457H59.3973V65.2858H59.7182H60.0391V65.4457H60.3599V65.7656L60.1995 66.0854L60.3599 66.4052V66.5651L60.0391 67.0449L60.1995 67.3647L60.3599 67.5246H60.1995L60.0391 67.3647L59.8786 67.6845L60.0391 68.1643L60.1995 68.3242L60.0391 68.4841L60.1995 68.9638H60.6808L60.5203 69.1237V69.2836L60.8412 69.6035H60.6808V69.9233L60.8412 70.0832H61.0017L61.1621 69.9233V70.403L61.3225 70.7229V71.5224L61.1621 71.6823V71.8422L61.3225 72.0022L61.4829 72.1621V72.322L61.6434 72.4819V72.8017H61.8038V72.9616L61.9642 73.1216L62.1247 73.2815H62.2851L62.4455 73.4414H62.606L62.9268 73.6013H64.3707V73.2815H64.6916V72.8017L64.852 72.1621V71.6823L65.0124 71.5224H65.3333L65.4938 71.3625L65.6542 71.2026L65.8146 71.0427V70.8828L65.975 70.7229L66.1355 70.5629V70.403H65.975V70.0832L65.8146 69.9233L65.975 69.7634V69.4436L66.1355 69.1237H65.975V68.9638L65.8146 68.8039L65.6542 68.644L65.4938 68.4841H65.3333V68.3242H64.6916L64.5312 68.1643V67.6845L64.3707 67.5246V67.3647L64.2103 67.2048L64.0499 67.0449V66.725L63.8894 66.5651L63.729 66.4052L63.5686 66.2453V66.0854L63.4081 65.9255V65.7656H63.5686V65.4457L63.729 65.2858V65.1259L63.8894 64.966H64.0499L64.2103 64.8061V64.6462L64.3707 64.4862H64.6916V64.3263H65.0124L65.1729 64.1664H65.3333V64.0065L65.4938 63.8466V63.6867H65.6542L65.8146 63.5268H65.975L66.1355 63.6867H66.2959L66.4564 63.8466V64.0065H66.7772L66.9376 64.1664L67.0981 64.0065H67.4189L67.7398 63.8466H67.8041L68.0766 63.9824C68.2529 64.1332 68.5049 64.2207 68.5049 64.2207C68.5049 64.2207 68.6184 64.3965 68.769 64.3716C68.9196 64.3467 69.4485 64.61 69.5749 64.4719C69.7005 64.3339 69.8769 64.3965 69.9276 64.3588C69.9783 64.3211 70.1168 64.3965 70.1917 64.4463C70.2674 64.4968 70.3302 64.4591 70.4437 64.3588C70.5572 64.2585 70.6579 64.1453 70.6828 64.1958C70.7078 64.2464 70.9091 64.2833 70.9598 64.3844C71.0105 64.4847 71.0604 64.447 71.149 64.3844C71.2375 64.3218 71.174 64.2841 71.2247 64.3595C71.2754 64.435 71.3125 64.3467 71.401 64.2343C71.4888 64.1212 71.6779 64.134 71.7287 64.0457C71.7794 63.9582 71.2017 64.3177 71.2017 64.3177L71.9171 63.9582L73 63.4506Z" stroke="white" stroke-linecap="square" stroke-linejoin="bevel"/>
</svg>
